<svg width="386" height="541" viewBox="0 0 386 541" fill="none" xmlns="http://www.w3.org/2000/svg">
<circle cx="197.917" cy="175.679" r="128.109" fill="#5552FF"/>
<path d="M132.946 286.626C162.37 303.614 197.338 308.218 230.157 299.424C262.976 290.63 290.957 269.159 307.946 239.735C324.934 210.31 329.537 175.342 320.744 142.523C311.95 109.704 290.479 81.7229 261.054 64.7346L197 175.68L132.946 286.626Z" fill="#4441F6"/>
<circle cx="197.917" cy="175.679" r="137.925" fill="#377BD3" fill-opacity="0.35"/>
<path d="M86.9599 378.874V394.924C86.9799 395.484 86.8699 395.994 86.6299 396.454C86.4099 396.894 86.0999 397.274 85.6999 397.594C85.3199 397.894 84.8799 398.134 84.3799 398.314C83.8799 398.474 83.3599 398.554 82.8199 398.554C82.2999 398.574 81.7899 398.504 81.2899 398.344C80.7899 398.164 80.3499 397.914 79.9699 397.594C79.5899 397.274 79.2799 396.894 79.0399 396.454C78.8199 395.994 78.7099 395.484 78.7099 394.924V378.874H74.2999V394.834C74.2999 396.374 74.6899 397.714 75.4699 398.854C76.2299 399.974 77.2699 400.824 78.5899 401.404C79.9299 401.984 81.3399 402.274 82.8199 402.274C84.3199 402.274 85.7299 401.984 87.0499 401.404C88.3699 400.824 89.4199 399.974 90.1999 398.854C90.9799 397.714 91.3699 396.374 91.3699 394.834V382.414H95.7199V378.874H86.9599ZM101.5 394.864C101.5 394.284 101.51 393.764 101.53 393.304C101.57 392.824 101.61 392.384 101.65 391.984C101.77 391.244 102.07 390.584 102.55 390.004C103.03 389.444 103.79 389.164 104.83 389.164C105.87 389.164 106.56 389.524 106.9 390.244C107.24 390.984 107.41 391.954 107.41 393.154V401.914H111.49V392.044C111.49 390.164 111.1 388.684 110.32 387.604C109.5 386.544 108.17 386.014 106.33 386.014C105.27 386.014 104.3 386.244 103.42 386.704C102.54 387.164 101.81 387.824 101.23 388.684V386.344H97.4203V401.914H101.5V394.864ZM121.07 398.284V386.344H116.99V401.914H124.4V398.284H121.07ZM132.779 405.784V386.344H128.699V409.414H136.109V405.784H132.779ZM161.827 401.914V390.934C161.827 389.354 161.427 388.144 160.627 387.304C159.827 386.444 158.647 386.014 157.087 386.014C156.287 386.014 155.507 386.214 154.747 386.614C153.987 387.014 153.367 387.524 152.887 388.144V386.344H148.837V394.864C148.837 395.824 148.657 396.734 148.297 397.594C147.897 398.474 147.267 398.984 146.407 399.124C146.287 399.164 146.187 399.184 146.107 399.184C146.027 399.184 145.967 399.184 145.927 399.184C144.687 399.184 144.067 398.254 144.067 396.394V386.344H139.987V397.324C139.987 398.924 140.437 400.154 141.337 401.014C142.237 401.854 143.477 402.274 145.057 402.274C145.757 402.274 146.477 402.084 147.217 401.704C147.977 401.304 148.597 400.794 149.077 400.174V401.914H152.917V393.514C152.917 392.394 153.127 391.384 153.547 390.484C153.967 389.564 154.677 389.104 155.677 389.104C156.297 389.104 156.757 389.254 157.057 389.554C157.377 389.854 157.567 390.224 157.627 390.664C157.707 391.104 157.747 391.674 157.747 392.374V401.914H161.827ZM171.821 388.324V378.844H167.741V409.414H171.821V394.864C171.821 394.284 171.831 393.764 171.851 393.304C171.891 392.824 171.931 392.384 171.971 391.984C172.091 391.244 172.391 390.584 172.871 390.004C173.351 389.444 174.111 389.164 175.151 389.164C176.191 389.164 176.881 389.524 177.221 390.244C177.561 390.984 177.731 391.954 177.731 393.154V401.914H181.811V392.044C181.811 390.164 181.421 388.684 180.641 387.604C179.821 386.544 178.491 386.014 176.651 386.014C174.671 386.014 173.061 386.784 171.821 388.324ZM199.041 383.374C199.041 383.014 199.141 382.784 199.341 382.684C199.541 382.564 199.881 382.504 200.361 382.504H202.461V378.874H198.951C198.611 378.874 198.291 378.884 197.991 378.904C197.711 378.924 197.431 378.964 197.151 379.024C196.591 379.124 196.081 379.354 195.621 379.714C195.181 380.054 194.911 380.564 194.811 381.244C194.791 381.404 194.771 381.544 194.751 381.664C194.751 381.784 194.751 381.884 194.751 381.964C194.751 382.584 194.831 383.114 194.991 383.554C195.091 383.774 195.231 384.094 195.411 384.514C195.591 384.914 195.821 385.404 196.101 385.984C196.661 387.164 197.071 388.204 197.331 389.104C197.451 389.564 197.541 390.064 197.601 390.604C197.681 391.124 197.721 391.674 197.721 392.254V393.394C197.721 394.534 197.661 395.494 197.541 396.274C197.461 397.014 197.171 397.674 196.671 398.254C196.171 398.814 195.411 399.094 194.391 399.094C193.311 399.094 192.611 398.734 192.291 398.014C191.971 397.294 191.811 396.324 191.811 395.104V386.344H187.731V396.214C187.731 397.134 187.821 397.964 188.001 398.704C188.181 399.444 188.471 400.084 188.871 400.624C189.291 401.144 189.821 401.544 190.461 401.824C191.121 402.104 191.931 402.244 192.891 402.244C193.971 402.244 194.941 402.024 195.801 401.584C196.681 401.124 197.411 400.454 197.991 399.574V401.914H201.801V391.834C201.801 390.434 201.671 389.304 201.411 388.444C201.291 387.984 201.151 387.564 200.991 387.184C200.831 386.804 200.641 386.444 200.421 386.104C200.201 385.764 200.011 385.464 199.851 385.204C199.691 384.924 199.541 384.684 199.401 384.484C199.161 384.104 199.041 383.734 199.041 383.374ZM211.801 389.974H221.881V386.344H211.801V378.844H207.721V396.214C207.721 397.134 207.811 397.964 207.991 398.704C208.171 399.444 208.461 400.084 208.861 400.624C209.281 401.144 209.811 401.544 210.451 401.824C211.111 402.104 211.921 402.244 212.881 402.244C213.961 402.244 214.931 402.024 215.791 401.584C216.671 401.124 217.401 400.454 217.981 399.574V401.914H221.791V391.984H217.711V393.394C217.711 394.534 217.651 395.494 217.531 396.274C217.451 397.014 217.161 397.674 216.661 398.254C216.161 398.814 215.401 399.094 214.381 399.094C213.301 399.094 212.601 398.734 212.281 398.014C211.961 397.294 211.801 396.324 211.801 395.104V389.974ZM241.781 398.284V392.044C241.781 390.164 241.391 388.684 240.611 387.604C239.791 386.544 238.461 386.014 236.621 386.014C235.561 386.014 234.591 386.244 233.711 386.704C232.831 387.164 232.101 387.824 231.521 388.684V386.344H227.711V401.914H231.791V394.864C231.791 394.284 231.801 393.764 231.821 393.304C231.861 392.824 231.901 392.384 231.941 391.984C232.061 391.244 232.361 390.584 232.841 390.004C233.321 389.444 234.081 389.164 235.121 389.164C236.161 389.164 236.851 389.524 237.191 390.244C237.531 390.984 237.701 391.954 237.701 393.154V409.414H241.781V401.914H245.111V398.284H241.781ZM253.069 388.324V378.844H248.989V409.414H253.069V394.864C253.069 394.284 253.079 393.764 253.099 393.304C253.139 392.824 253.179 392.384 253.219 391.984C253.339 391.244 253.639 390.584 254.119 390.004C254.599 389.444 255.359 389.164 256.399 389.164C257.439 389.164 258.129 389.524 258.469 390.244C258.809 390.984 258.979 391.954 258.979 393.154V401.914H263.059V392.044C263.059 390.164 262.669 388.684 261.889 387.604C261.069 386.544 259.739 386.014 257.899 386.014C255.919 386.014 254.309 386.784 253.069 388.324ZM286.739 393.844C286.739 395.304 286.549 396.544 286.169 397.564C285.789 398.604 284.999 399.124 283.799 399.124C283.259 399.124 282.839 398.944 282.539 398.584C282.259 398.204 282.089 397.764 282.029 397.264C281.969 396.764 281.939 396.094 281.939 395.254V386.374H277.859V393.844C277.859 395.304 277.669 396.544 277.289 397.564C276.909 398.604 276.119 399.124 274.919 399.124C274.359 399.124 273.949 398.944 273.689 398.584C273.409 398.204 273.229 397.764 273.149 397.264C273.089 396.764 273.059 396.094 273.059 395.254V386.374H268.979V396.304C268.979 398.104 269.339 399.554 270.059 400.654C270.799 401.734 272.009 402.274 273.689 402.274C275.369 402.274 276.919 401.444 278.339 399.784C278.799 400.624 279.399 401.254 280.139 401.674C280.899 402.074 281.759 402.274 282.719 402.274C283.559 402.274 284.379 402.024 285.179 401.524C285.979 401.044 286.599 400.464 287.039 399.784V401.914H290.819V386.374H286.739V393.844ZM296.733 386.344V402.694C296.733 403.894 296.653 404.754 296.493 405.274C296.333 405.754 295.943 405.994 295.323 405.994C295.063 405.994 294.713 405.944 294.273 405.844V409.384C294.833 409.604 295.383 409.714 295.923 409.714C297.863 409.714 299.163 409.114 299.823 407.914C300.483 406.714 300.813 405.054 300.813 402.934V386.344H296.733ZM310.812 388.324V378.844H306.732V409.414H310.812V394.864C310.812 394.284 310.822 393.764 310.842 393.304C310.882 392.824 310.922 392.384 310.962 391.984C311.082 391.244 311.382 390.584 311.862 390.004C312.342 389.444 313.102 389.164 314.142 389.164C315.182 389.164 315.872 389.524 316.212 390.244C316.552 390.984 316.722 391.954 316.722 393.154V401.914H320.802V392.044C320.802 390.164 320.412 388.684 319.632 387.604C318.812 386.544 317.482 386.014 315.642 386.014C313.662 386.014 312.052 386.784 310.812 388.324Z" fill="white"/>
<path opacity="0.8" d="M142.942 440.099C143.409 440.165 143.842 440.272 144.242 440.419C144.642 440.552 144.989 440.739 145.282 440.979C145.576 441.219 145.802 441.519 145.962 441.879C146.136 442.225 146.222 442.639 146.222 443.119C146.222 444.172 145.942 444.965 145.382 445.499C144.822 446.032 144.002 446.365 142.922 446.499L142.942 440.099ZM139.982 437.739H139.662C139.116 437.739 138.662 437.679 138.302 437.559C137.956 437.452 137.782 437.192 137.782 436.779C137.782 436.365 137.962 436.085 138.322 435.939C138.682 435.819 139.136 435.759 139.682 435.759H140.002L139.982 437.739ZM142.942 433.419C142.156 433.419 141.469 433.419 140.882 433.419C140.309 433.419 139.829 433.425 139.442 433.439C138.176 433.452 137.109 433.725 136.242 434.259C135.389 434.779 134.962 435.619 134.962 436.779C134.962 437.672 135.202 438.365 135.682 438.859C136.176 439.365 136.789 439.712 137.522 439.899C138.269 440.072 139.096 440.159 140.002 440.159V446.499C139.562 446.499 139.136 446.425 138.722 446.279C138.322 446.119 137.969 445.905 137.662 445.639C137.356 445.359 137.109 445.032 136.922 444.659C136.749 444.272 136.669 443.859 136.682 443.419C136.682 443.392 136.682 443.359 136.682 443.319C136.696 443.279 136.702 443.245 136.702 443.219H133.762C133.802 444.379 134.022 445.332 134.422 446.079C134.822 446.825 135.382 447.425 136.102 447.879C136.822 448.305 137.616 448.605 138.482 448.779C139.362 448.952 140.362 449.039 141.482 449.039C142.536 449.039 143.522 448.939 144.442 448.739C145.376 448.539 146.189 448.205 146.882 447.739C147.589 447.272 148.142 446.652 148.542 445.879C148.956 445.105 149.162 444.145 149.162 442.999C149.162 441.305 148.569 440.032 147.382 439.179C146.209 438.325 144.722 437.819 142.922 437.659L142.942 433.419ZM164.524 443.419C164.524 444.392 164.397 445.219 164.144 445.899C163.89 446.592 163.364 446.939 162.564 446.939C162.204 446.939 161.924 446.819 161.724 446.579C161.537 446.325 161.424 446.032 161.384 445.699C161.344 445.365 161.324 444.919 161.324 444.359V438.439H158.604V443.419C158.604 444.392 158.477 445.219 158.224 445.899C157.97 446.592 157.444 446.939 156.644 446.939C156.27 446.939 155.997 446.819 155.824 446.579C155.637 446.325 155.517 446.032 155.464 445.699C155.424 445.365 155.404 444.919 155.404 444.359V438.439H152.684V445.059C152.684 446.259 152.924 447.225 153.404 447.959C153.897 448.679 154.704 449.039 155.824 449.039C156.944 449.039 157.977 448.485 158.924 447.379C159.23 447.939 159.63 448.359 160.124 448.639C160.63 448.905 161.204 449.039 161.844 449.039C162.404 449.039 162.95 448.872 163.484 448.539C164.017 448.219 164.43 447.832 164.724 447.379V448.799H167.244V438.439H164.524V443.419ZM177.846 447.479V453.799H180.566V438.419H177.846V443.119C177.846 443.879 177.806 444.519 177.726 445.039C177.673 445.532 177.479 445.972 177.146 446.359C176.813 446.732 176.306 446.919 175.626 446.919C174.906 446.919 174.439 446.679 174.226 446.199C174.013 445.719 173.906 445.072 173.906 444.259V433.419H171.186V444.999C171.186 445.612 171.246 446.165 171.366 446.659C171.486 447.152 171.679 447.579 171.946 447.939C172.226 448.285 172.579 448.552 173.006 448.739C173.446 448.925 173.986 449.019 174.626 449.019C175.279 449.019 175.879 448.885 176.426 448.619C176.973 448.352 177.446 447.972 177.846 447.479ZM187.232 444.099C187.232 443.712 187.239 443.365 187.252 443.059C187.279 442.739 187.306 442.445 187.332 442.179C187.412 441.685 187.612 441.245 187.932 440.859C188.252 440.485 188.759 440.299 189.452 440.299C190.146 440.299 190.606 440.539 190.832 441.019C191.059 441.512 191.172 442.159 191.172 442.959V448.799H193.892V442.219C193.892 440.965 193.632 439.979 193.112 439.259C192.566 438.552 191.679 438.199 190.452 438.199C189.746 438.199 189.099 438.352 188.512 438.659C187.926 438.965 187.439 439.405 187.052 439.979V438.419H184.512V448.799H187.232V444.099ZM200.279 446.379V438.419H197.559V448.799H202.499V446.379H200.279ZM208.085 451.379V438.419H205.365V453.799H210.305V451.379H208.085ZM227.451 448.799V441.479C227.451 440.425 227.184 439.619 226.651 439.059C226.117 438.485 225.331 438.199 224.291 438.199C223.757 438.199 223.237 438.332 222.731 438.599C222.224 438.865 221.811 439.205 221.491 439.619V438.419H218.791V444.099C218.791 444.739 218.671 445.345 218.431 445.919C218.164 446.505 217.744 446.845 217.171 446.939C217.091 446.965 217.024 446.979 216.971 446.979C216.917 446.979 216.877 446.979 216.851 446.979C216.024 446.979 215.611 446.359 215.611 445.119V438.419H212.891V445.739C212.891 446.805 213.191 447.625 213.791 448.199C214.391 448.759 215.217 449.039 216.271 449.039C216.737 449.039 217.217 448.912 217.711 448.659C218.217 448.392 218.631 448.052 218.951 447.639V448.799H221.511V443.199C221.511 442.452 221.651 441.779 221.931 441.179C222.211 440.565 222.684 440.259 223.351 440.259C223.764 440.259 224.071 440.359 224.271 440.559C224.484 440.759 224.611 441.005 224.651 441.299C224.704 441.592 224.731 441.972 224.731 442.439V448.799H227.451ZM234.113 440.839H240.833V438.419H234.113V433.419H231.393V444.999C231.393 445.612 231.453 446.165 231.573 446.659C231.693 447.152 231.886 447.579 232.153 447.939C232.433 448.285 232.786 448.552 233.213 448.739C233.653 448.925 234.193 449.019 234.833 449.019C235.553 449.019 236.2 448.872 236.773 448.579C237.36 448.272 237.846 447.825 238.233 447.239V448.799H240.773V442.179H238.053V443.119C238.053 443.879 238.013 444.519 237.933 445.039C237.88 445.532 237.686 445.972 237.353 446.359C237.02 446.732 236.513 446.919 235.833 446.919C235.113 446.919 234.646 446.679 234.433 446.199C234.22 445.719 234.113 445.072 234.113 444.259V440.839ZM259.28 448.799V441.479C259.28 440.425 259.013 439.619 258.48 439.059C257.946 438.485 257.16 438.199 256.12 438.199C255.586 438.199 255.066 438.332 254.56 438.599C254.053 438.865 253.64 439.205 253.32 439.619V438.419H250.62V444.099C250.62 444.739 250.5 445.345 250.26 445.919C249.993 446.505 249.573 446.845 249 446.939C248.92 446.965 248.853 446.979 248.8 446.979C248.746 446.979 248.706 446.979 248.68 446.979C247.853 446.979 247.44 446.359 247.44 445.119V438.419H244.72V445.739C244.72 446.805 245.02 447.625 245.62 448.199C246.22 448.759 247.046 449.039 248.1 449.039C248.566 449.039 249.046 448.912 249.54 448.659C250.046 448.392 250.46 448.052 250.78 447.639V448.799H253.34V443.199C253.34 442.452 253.48 441.779 253.76 441.179C254.04 440.565 254.513 440.259 255.18 440.259C255.593 440.259 255.9 440.359 256.1 440.559C256.313 440.759 256.44 441.005 256.48 441.299C256.533 441.592 256.56 441.972 256.56 442.439V448.799H259.28Z" fill="#5552FF"/>
<rect x="65.9961" y="481.281" width="262" height="59" rx="29.5" fill="#331EB5"/>
<path d="M133.373 503.261V514.781H135.578V509.756C135.578 509.476 135.633 509.226 135.743 509.006C135.853 508.776 136.003 508.581 136.193 508.421C136.383 508.261 136.603 508.141 136.853 508.061C137.103 507.971 137.363 507.931 137.633 507.941C137.903 507.941 138.163 507.986 138.413 508.076C138.663 508.156 138.883 508.276 139.073 508.436C139.273 508.586 139.428 508.776 139.538 509.006C139.658 509.226 139.713 509.476 139.703 509.756V511.571H141.908V509.801C141.908 509.201 141.788 508.671 141.548 508.211C141.318 507.741 141.003 507.351 140.603 507.041C140.213 506.721 139.758 506.481 139.238 506.321C138.728 506.161 138.188 506.081 137.618 506.081C137.288 506.081 136.943 506.121 136.583 506.201C136.223 506.271 135.883 506.376 135.563 506.516V503.261H133.373ZM150.588 505.511C150.588 505.331 150.638 505.216 150.738 505.166C150.838 505.106 151.008 505.076 151.248 505.076H152.298V503.261H150.543C150.373 503.261 150.213 503.266 150.063 503.276C149.923 503.286 149.783 503.306 149.643 503.336C149.363 503.386 149.108 503.501 148.878 503.681C148.658 503.851 148.523 504.106 148.473 504.446C148.463 504.526 148.453 504.596 148.443 504.656C148.443 504.716 148.443 504.766 148.443 504.806C148.443 505.116 148.483 505.381 148.563 505.601C148.613 505.711 148.683 505.871 148.773 506.081C148.863 506.281 148.978 506.526 149.118 506.816C149.398 507.406 149.603 507.926 149.733 508.376C149.793 508.606 149.838 508.856 149.868 509.126C149.908 509.386 149.928 509.661 149.928 509.951V510.521C149.928 511.091 149.898 511.571 149.838 511.961C149.798 512.331 149.653 512.661 149.403 512.951C149.153 513.231 148.773 513.371 148.263 513.371C147.723 513.371 147.373 513.191 147.213 512.831C147.053 512.471 146.973 511.986 146.973 511.376V506.996H144.933V511.931C144.933 512.391 144.978 512.806 145.068 513.176C145.158 513.546 145.303 513.866 145.503 514.136C145.713 514.396 145.978 514.596 146.298 514.736C146.628 514.876 147.033 514.946 147.513 514.946C148.053 514.946 148.538 514.836 148.968 514.616C149.408 514.386 149.773 514.051 150.063 513.611V514.781H151.968V509.741C151.968 509.041 151.903 508.476 151.773 508.046C151.713 507.816 151.643 507.606 151.563 507.416C151.483 507.226 151.388 507.046 151.278 506.876C151.168 506.706 151.073 506.556 150.993 506.426C150.913 506.286 150.838 506.166 150.768 506.066C150.648 505.876 150.588 505.691 150.588 505.511ZM163.808 510.746C163.808 511.476 163.713 512.096 163.523 512.606C163.333 513.126 162.938 513.386 162.338 513.386C162.068 513.386 161.858 513.296 161.708 513.116C161.568 512.926 161.483 512.706 161.453 512.456C161.423 512.206 161.408 511.871 161.408 511.451V507.011H159.368V510.746C159.368 511.476 159.273 512.096 159.083 512.606C158.893 513.126 158.498 513.386 157.898 513.386C157.618 513.386 157.413 513.296 157.283 513.116C157.143 512.926 157.053 512.706 157.013 512.456C156.983 512.206 156.968 511.871 156.968 511.451V507.011H154.928V511.976C154.928 512.876 155.108 513.601 155.468 514.151C155.838 514.691 156.443 514.961 157.283 514.961C158.123 514.961 158.898 514.546 159.608 513.716C159.838 514.136 160.138 514.451 160.508 514.661C160.888 514.861 161.318 514.961 161.798 514.961C162.218 514.961 162.628 514.836 163.028 514.586C163.428 514.346 163.738 514.056 163.958 513.716V514.781H165.848V507.011H163.808V510.746ZM171.28 505.331C170.43 505.331 169.965 505.141 169.885 504.761C169.875 504.691 169.865 504.631 169.855 504.581C169.855 504.521 169.855 504.471 169.855 504.431C169.855 504.181 169.9 503.791 169.99 503.261H167.875C167.855 503.321 167.84 503.386 167.83 503.456C167.83 503.526 167.82 503.601 167.8 503.681C167.78 503.851 167.76 504.036 167.74 504.236C167.72 504.426 167.71 504.581 167.71 504.701C167.71 504.871 167.735 505.096 167.785 505.376C167.865 505.726 168.06 505.986 168.37 506.156C168.69 506.326 169.12 506.446 169.66 506.516C169.39 506.706 169.175 507.026 169.015 507.476C168.875 507.926 168.805 508.346 168.805 508.736V511.931C168.805 512.391 168.85 512.806 168.94 513.176C169.03 513.546 169.175 513.866 169.375 514.136C169.585 514.396 169.85 514.596 170.17 514.736C170.5 514.876 170.905 514.946 171.385 514.946C171.925 514.946 172.41 514.836 172.84 514.616C173.28 514.386 173.645 514.051 173.935 513.611V514.781H175.84V506.996H173.8V510.521C173.8 511.091 173.77 511.571 173.71 511.961C173.67 512.331 173.525 512.661 173.275 512.951C173.025 513.231 172.645 513.371 172.135 513.371C171.595 513.371 171.245 513.191 171.085 512.831C170.925 512.471 170.845 511.986 170.845 511.376V508.571C170.845 508.021 170.925 507.581 171.085 507.251C171.165 507.081 171.255 506.916 171.355 506.756C171.455 506.586 171.56 506.431 171.67 506.291C171.9 506.001 172.015 505.801 172.015 505.691C172.015 505.541 171.95 505.446 171.82 505.406C171.69 505.356 171.51 505.331 171.28 505.331ZM187.768 510.746C187.768 511.476 187.673 512.096 187.483 512.606C187.293 513.126 186.898 513.386 186.298 513.386C186.028 513.386 185.818 513.296 185.668 513.116C185.528 512.926 185.443 512.706 185.413 512.456C185.383 512.206 185.368 511.871 185.368 511.451V507.011H183.328V510.746C183.328 511.476 183.233 512.096 183.043 512.606C182.853 513.126 182.458 513.386 181.858 513.386C181.578 513.386 181.373 513.296 181.243 513.116C181.103 512.926 181.013 512.706 180.973 512.456C180.943 512.206 180.928 511.871 180.928 511.451V507.011H178.888V511.976C178.888 512.876 179.068 513.601 179.428 514.151C179.798 514.691 180.403 514.961 181.243 514.961C182.083 514.961 182.858 514.546 183.568 513.716C183.798 514.136 184.098 514.451 184.468 514.661C184.848 514.861 185.278 514.961 185.758 514.961C186.178 514.961 186.588 514.836 186.988 514.586C187.388 514.346 187.698 514.056 187.918 513.716V514.781H189.808V507.011H187.768V510.746ZM194.805 516.716V506.996H192.765V518.531H196.47V516.716H194.805ZM212.289 510.746C212.289 511.476 212.194 512.096 212.004 512.606C211.814 513.126 211.419 513.386 210.819 513.386C210.549 513.386 210.339 513.296 210.189 513.116C210.049 512.926 209.964 512.706 209.934 512.456C209.904 512.206 209.889 511.871 209.889 511.451V507.011H207.849V510.746C207.849 511.476 207.754 512.096 207.564 512.606C207.374 513.126 206.979 513.386 206.379 513.386C206.099 513.386 205.894 513.296 205.764 513.116C205.624 512.926 205.534 512.706 205.494 512.456C205.464 512.206 205.449 511.871 205.449 511.451V507.011H203.409V511.976C203.409 512.876 203.589 513.601 203.949 514.151C204.319 514.691 204.924 514.961 205.764 514.961C206.604 514.961 207.379 514.546 208.089 513.716C208.319 514.136 208.619 514.451 208.989 514.661C209.369 514.861 209.799 514.961 210.279 514.961C210.699 514.961 211.109 514.836 211.509 514.586C211.909 514.346 212.219 514.056 212.439 513.716V514.781H214.329V507.011H212.289V510.746ZM222.28 518.531H225.985V516.716H224.32V503.246H222.28V510.521C222.28 511.091 222.25 511.571 222.19 511.961C222.15 512.331 222.005 512.661 221.755 512.951C221.505 513.231 221.125 513.371 220.615 513.371C220.075 513.371 219.725 513.191 219.565 512.831C219.405 512.471 219.325 511.986 219.325 511.376V506.996H217.285V511.931C217.285 512.391 217.33 512.806 217.42 513.176C217.51 513.546 217.655 513.866 217.855 514.136C218.065 514.396 218.33 514.596 218.65 514.736C218.98 514.876 219.385 514.946 219.865 514.946C220.355 514.946 220.805 514.846 221.215 514.646C221.625 514.446 221.98 514.161 222.28 513.791V518.531ZM229.965 508.811H235.005V506.996H229.965V503.246H227.925V511.931C227.925 512.391 227.97 512.806 228.06 513.176C228.15 513.546 228.295 513.866 228.495 514.136C228.705 514.396 228.97 514.596 229.29 514.736C229.62 514.876 230.025 514.946 230.505 514.946C231.045 514.946 231.53 514.836 231.96 514.616C232.4 514.386 232.765 514.051 233.055 513.611V514.781H234.96V509.816H232.92V510.521C232.92 511.091 232.89 511.571 232.83 511.961C232.79 512.331 232.645 512.661 232.395 512.951C232.145 513.231 231.765 513.371 231.255 513.371C230.715 513.371 230.365 513.191 230.205 512.831C230.045 512.471 229.965 511.986 229.965 511.376V508.811ZM239.96 516.716V506.996H237.92V518.531H241.625V516.716H239.96ZM245.604 507.986V503.246H243.564V518.531H245.604V511.256C245.604 510.966 245.609 510.706 245.619 510.476C245.639 510.236 245.659 510.016 245.679 509.816C245.739 509.446 245.889 509.116 246.129 508.826C246.369 508.546 246.749 508.406 247.269 508.406C247.789 508.406 248.134 508.586 248.304 508.946C248.474 509.316 248.559 509.801 248.559 510.401V514.781H250.599V509.846C250.599 508.906 250.404 508.166 250.014 507.626C249.604 507.096 248.939 506.831 248.019 506.831C247.029 506.831 246.224 507.216 245.604 507.986ZM256.034 505.331C255.184 505.331 254.719 505.141 254.639 504.761C254.629 504.691 254.619 504.631 254.609 504.581C254.609 504.521 254.609 504.471 254.609 504.431C254.609 504.181 254.654 503.791 254.744 503.261H252.629C252.609 503.321 252.594 503.386 252.584 503.456C252.584 503.526 252.574 503.601 252.554 503.681C252.534 503.851 252.514 504.036 252.494 504.236C252.474 504.426 252.464 504.581 252.464 504.701C252.464 504.871 252.489 505.096 252.539 505.376C252.619 505.726 252.814 505.986 253.124 506.156C253.444 506.326 253.874 506.446 254.414 506.516C254.144 506.706 253.929 507.026 253.769 507.476C253.629 507.926 253.559 508.346 253.559 508.736V511.931C253.559 512.391 253.604 512.806 253.694 513.176C253.784 513.546 253.929 513.866 254.129 514.136C254.339 514.396 254.604 514.596 254.924 514.736C255.254 514.876 255.659 514.946 256.139 514.946C256.679 514.946 257.164 514.836 257.594 514.616C258.034 514.386 258.399 514.051 258.689 513.611V514.781H260.594V506.996H258.554V510.521C258.554 511.091 258.524 511.571 258.464 511.961C258.424 512.331 258.279 512.661 258.029 512.951C257.779 513.231 257.399 513.371 256.889 513.371C256.349 513.371 255.999 513.191 255.839 512.831C255.679 512.471 255.599 511.986 255.599 511.376V508.571C255.599 508.021 255.679 507.581 255.839 507.251C255.919 507.081 256.009 506.916 256.109 506.756C256.209 506.586 256.314 506.431 256.424 506.291C256.654 506.001 256.769 505.801 256.769 505.691C256.769 505.541 256.704 505.446 256.574 505.406C256.444 505.356 256.264 505.331 256.034 505.331Z" fill="white"/>
<g clip-path="url(#clip0)">
<path d="M243.102 140.251H230.69V133.159C230.69 131.322 229.455 129.694 227.683 129.203L197.001 120.68L166.32 129.203C164.548 129.694 163.312 131.322 163.312 133.159C163.312 134.996 164.548 136.623 166.32 137.115L170.405 138.249V140.251H150.901C146.012 140.251 142.035 144.228 142.035 149.117V211.176C142.035 216.064 146.012 220.041 150.901 220.041H172.178V227.133H165.086V230.68H228.917V227.133H221.825V220.041H243.102C247.991 220.041 251.968 216.064 251.968 211.176V149.117C251.968 144.228 247.991 140.251 243.102 140.251ZM228.917 159.755C229.896 159.755 230.69 160.552 230.69 161.529V170.394H227.144V161.529C227.144 160.552 227.939 159.755 228.917 159.755ZM167.268 133.698C167.029 133.63 166.859 133.409 166.859 133.159C166.859 132.909 167.029 132.687 167.268 132.62L197.001 124.361L226.735 132.62C226.974 132.687 227.144 132.909 227.144 133.159C227.144 133.409 226.974 133.63 226.735 133.698L197.001 141.957L167.268 133.698ZM220.052 139.233V146.005L197.001 152.592L173.951 146.007V139.235L197.001 145.638L220.052 139.233ZM218.279 227.133H175.724V220.041H218.279V227.133ZM248.422 211.176C248.422 214.108 246.035 216.495 243.102 216.495H150.901C147.968 216.495 145.581 214.108 145.581 211.176V205.856H248.422V211.176ZM248.422 202.31H145.581V149.117C145.581 146.184 147.968 143.797 150.901 143.797H170.405V148.681L197.001 156.28L223.598 148.681V138.249L227.144 137.264V156.535C225.086 157.27 223.598 159.22 223.598 161.529V173.94H234.237V161.529C234.237 159.22 232.749 157.27 230.69 156.535V143.797H243.102C246.035 143.797 248.422 146.184 248.422 149.117V202.31Z" fill="white"/>
<path d="M191.68 168.854V189.664L207.288 179.26L191.68 168.854ZM195.226 175.481L200.895 179.26L195.226 183.04V175.481Z" fill="white"/>
<path d="M197 159.755C186.246 159.755 177.496 168.505 177.496 179.259C177.496 190.013 186.246 198.763 197 198.763C207.754 198.763 216.504 190.013 216.504 179.259C216.504 168.505 207.754 159.755 197 159.755ZM197 195.217C188.2 195.217 181.042 188.059 181.042 179.259C181.042 170.461 188.2 163.301 197 163.301C205.8 163.301 212.958 170.461 212.958 179.259C212.958 188.059 205.8 195.217 197 195.217Z" fill="white"/>
<path d="M207.637 209.402H186.359V212.949H207.637V209.402Z" fill="white"/>
<path d="M230.691 177.486H227.145V181.033H230.691V177.486Z" fill="white"/>
<path d="M223.597 177.486H220.051V181.033H223.597V177.486Z" fill="white"/>
<path d="M173.949 177.486H170.402V181.033H173.949V177.486Z" fill="white"/>
<path d="M166.859 177.486H163.312V181.033H166.859V177.486Z" fill="white"/>
<path d="M159.765 177.486H156.219V181.033H159.765V177.486Z" fill="white"/>
<path d="M237.781 177.486H234.234V181.033H237.781V177.486Z" fill="white"/>
</g>
<g opacity="0.45">
<path opacity="0.8" d="M326.902 93.7422C328.779 96.7129 330.562 99.7468 332.251 102.844" stroke="#5552FF" stroke-opacity="0.4" stroke-width="2" stroke-linecap="round" stroke-linejoin="round"/>
<path opacity="0.8" d="M48.2148 93.7422C46.3386 96.7129 44.5555 99.7468 42.8657 102.844" stroke="#5552FF" stroke-opacity="0.4" stroke-width="2" stroke-linecap="round" stroke-linejoin="round"/>
<path opacity="0.8" d="M194.625 20.9375C218.813 20.921 242.675 26.5202 264.331 37.2942C285.987 48.0682 304.846 63.7229 319.423 83.0252" stroke="#5552FF" stroke-opacity="0.4" stroke-width="2" stroke-linecap="round" stroke-linejoin="round"/>
<path opacity="0.8" d="M42.3164 218.396C46.5092 236.019 54.0111 252.603 64.2314 266.84C74.4516 281.076 87.1111 292.578 101.213 300.438" stroke="#5552FF" stroke-opacity="0.4" stroke-width="2" stroke-linecap="round" stroke-linejoin="round"/>
<path opacity="0.2" d="M163.226 333.082C172.437 333.082 179.904 325.615 179.904 316.403C179.904 307.192 172.437 299.725 163.226 299.725C154.014 299.725 146.547 307.192 146.547 316.403C146.547 325.615 154.014 333.082 163.226 333.082Z" fill="#5552FF" fill-opacity="0.4"/>
<path opacity="0.2" d="M19.8831 89.34C19.8831 90.1392 19.6461 90.9206 19.202 91.5851C18.758 92.2497 18.1268 92.7677 17.3884 93.0735C16.65 93.3794 15.8375 93.4594 15.0536 93.3035C14.2696 93.1476 13.5496 92.7627 12.9844 92.1975C12.4192 91.6323 12.0344 90.9123 11.8784 90.1284C11.7225 89.3445 11.8025 88.5319 12.1084 87.7935C12.4143 87.0551 12.9322 86.4239 13.5968 85.9799C14.2614 85.5358 15.0427 85.2988 15.8419 85.2988C16.3726 85.2988 16.8981 85.4034 17.3884 85.6064C17.8787 85.8095 18.3242 86.1072 18.6995 86.4825C19.0747 86.8577 19.3724 87.3032 19.5755 87.7935C19.7786 88.2838 19.8831 88.8093 19.8831 89.34Z" fill="#5552FF" fill-opacity="0.4"/>
<path opacity="0.2" d="M110.06 64.1101C110.06 66.7976 109.263 69.4248 107.77 71.6595C106.277 73.8941 104.155 75.6358 101.672 76.6643C99.1885 77.6927 96.4563 77.9619 93.8204 77.4375C91.1845 76.9132 88.7632 75.619 86.8628 73.7186C84.9624 71.8182 83.6682 69.397 83.1439 66.7611C82.6196 64.1251 82.8887 61.3929 83.9172 58.9099C84.9457 56.427 86.6874 54.3047 88.922 52.8115C91.1566 51.3184 93.7838 50.5215 96.4714 50.5215C98.2559 50.5215 100.023 50.873 101.672 51.5559C103.32 52.2387 104.818 53.2397 106.08 54.5015C107.342 55.7633 108.343 57.2613 109.026 58.9099C109.709 60.5586 110.06 62.3256 110.06 64.1101Z" fill="#5552FF" fill-opacity="0.4"/>
<path opacity="0.2" d="M280.247 310.631C280.247 313.318 279.451 315.945 277.957 318.18C276.464 320.415 274.342 322.156 271.859 323.185C269.376 324.213 266.644 324.482 264.008 323.958C261.372 323.434 258.951 322.14 257.05 320.239C255.15 318.339 253.856 315.917 253.331 313.282C252.807 310.646 253.076 307.913 254.105 305.43C255.133 302.947 256.875 300.825 259.109 299.332C261.344 297.839 263.971 297.042 266.659 297.042C268.443 297.042 270.21 297.393 271.859 298.076C273.508 298.759 275.006 299.76 276.267 301.022C277.529 302.284 278.53 303.782 279.213 305.43C279.896 307.079 280.247 308.846 280.247 310.631Z" fill="#5552FF" fill-opacity="0.4"/>
<path opacity="0.2" d="M361.162 162.091C361.162 164.778 360.365 167.405 358.871 169.64C357.378 171.875 355.256 173.616 352.773 174.645C350.29 175.673 347.558 175.942 344.922 175.418C342.286 174.894 339.865 173.599 337.964 171.699C336.064 169.799 334.77 167.377 334.245 164.742C333.721 162.106 333.99 159.373 335.019 156.89C336.047 154.407 337.789 152.285 340.024 150.792C342.258 149.299 344.885 148.502 347.573 148.502C349.357 148.502 351.124 148.853 352.773 149.536C354.422 150.219 355.92 151.22 357.182 152.482C358.443 153.744 359.444 155.242 360.127 156.89C360.81 158.539 361.162 160.306 361.162 162.091Z" fill="#5552FF" fill-opacity="0.4"/>
<path opacity="0.2" d="M78.4522 250.516C78.4522 254.167 77.3698 257.735 75.3418 260.77C73.3137 263.805 70.4312 266.171 67.0587 267.568C63.6862 268.965 59.9752 269.33 56.395 268.618C52.8147 267.906 49.5261 266.148 46.9449 263.567C44.3637 260.986 42.6059 257.697 41.8937 254.117C41.1816 250.537 41.5471 246.826 42.944 243.453C44.3409 240.081 46.7065 237.198 49.7417 235.17C52.7769 233.142 56.3453 232.06 59.9957 232.06C62.4194 232.06 64.8194 232.537 67.0587 233.464C69.2979 234.392 71.3326 235.752 73.0464 237.465C74.7603 239.179 76.1198 241.214 77.0473 243.453C77.9749 245.692 78.4522 248.092 78.4522 250.516Z" fill="#5552FF" fill-opacity="0.4"/>
<path opacity="0.2" d="M311.611 277.63C311.611 282.075 310.293 286.421 307.823 290.117C305.353 293.814 301.842 296.695 297.735 298.396C293.628 300.097 289.109 300.542 284.748 299.675C280.388 298.808 276.383 296.667 273.24 293.523C270.096 290.38 267.955 286.375 267.088 282.015C266.221 277.655 266.666 273.135 268.367 269.028C270.068 264.921 272.949 261.41 276.646 258.94C280.342 256.471 284.688 255.152 289.134 255.152C292.085 255.152 295.008 255.734 297.735 256.863C300.462 257.993 302.94 259.649 305.027 261.736C307.115 263.823 308.77 266.301 309.9 269.028C311.03 271.755 311.611 274.678 311.611 277.63Z" fill="#5552FF" fill-opacity="0.4"/>
<path d="M109.898 13.3521C109.895 13.6 109.818 13.8414 109.677 14.0455C109.536 14.2497 109.338 14.4075 109.108 14.4991C108.877 14.5907 108.625 14.6119 108.382 14.56C108.14 14.5081 107.918 14.3855 107.745 14.2077C107.572 14.0298 107.456 13.8047 107.411 13.5608C107.366 13.317 107.395 13.0653 107.493 12.8375C107.591 12.6098 107.755 12.4163 107.963 12.2815C108.171 12.1467 108.414 12.0767 108.662 12.0802C108.827 12.0826 108.99 12.1173 109.141 12.1825C109.292 12.2477 109.429 12.3421 109.544 12.4602C109.658 12.5783 109.749 12.7178 109.81 12.8709C109.87 13.0239 109.901 13.1874 109.898 13.3521Z" fill="#5552FF" fill-opacity="0.4"/>
<path d="M42.867 240.884C42.8652 241.132 42.7902 241.373 42.6513 241.578C42.5125 241.783 42.3161 241.942 42.0868 242.036C41.8575 242.129 41.6057 242.153 41.3631 242.104C41.1205 242.054 40.8979 241.934 40.7234 241.758C40.549 241.583 40.4305 241.359 40.3828 241.116C40.3352 240.873 40.3605 240.622 40.4557 240.393C40.5508 240.164 40.7115 239.969 40.9175 239.832C41.1235 239.694 41.3656 239.621 41.6132 239.621C41.7786 239.621 41.9424 239.654 42.0951 239.717C42.2478 239.781 42.3864 239.874 42.503 239.992C42.6195 240.109 42.7117 240.248 42.7742 240.401C42.8367 240.555 42.8682 240.719 42.867 240.884Z" fill="#5552FF" fill-opacity="0.4"/>
<path opacity="0.4" d="M149.136 330.854C150.919 330.854 152.365 329.408 152.365 327.625C152.365 325.841 150.919 324.396 149.136 324.396C147.352 324.396 145.906 325.841 145.906 327.625C145.906 329.408 147.352 330.854 149.136 330.854Z" fill="#5552FF" fill-opacity="0.4"/>
<g opacity="0.4">
<path opacity="0.4" d="M116.41 312.219V327.626" stroke="#5552FF" stroke-opacity="0.4" stroke-width="2" stroke-linecap="round" stroke-linejoin="round"/>
<path opacity="0.4" d="M108.699 319.921H124.115" stroke="#5552FF" stroke-opacity="0.4" stroke-width="2" stroke-linecap="round" stroke-linejoin="round"/>
</g>
</g>
<g clip-path="url(#clip1)">
<path d="M0.917969 169.932L34.735 173.454L38.3613 138.643L4.54425 135.12L0.917969 169.932ZM36.1673 140.476L32.966 171.208L3.11191 168.098L6.31324 137.366L36.1673 140.476Z" fill="#B9D1F0"/>
<path d="M14.4218 156.692L13.9102 161.604L25.1649 162.776L25.3995 160.524L21.6267 160.131L21.9123 157.39C22.1215 155.382 20.5897 153.606 18.547 153.394C16.8138 153.213 14.656 154.444 14.4218 156.692ZM19.9807 157.32L19.7087 159.931L16.0628 159.551L16.3246 157.038C16.4241 156.083 17.3579 155.579 18.309 155.678C19.416 155.793 20.0629 156.53 19.9807 157.32Z" fill="#B9D1F0"/>
<path d="M21.5774 148.926C21.4707 149.234 21.1124 150.577 20.3561 150.498C19.7501 150.435 19.4742 149.889 19.5568 149.095C19.669 148.019 20.3723 147.113 20.7346 146.711L19.5424 145.696C19.0922 146.122 18.248 147.046 18.0526 148.922C17.8665 150.709 18.6873 152.386 20.4448 152.569C22.2704 152.759 22.8714 150.298 23.077 149.759C23.326 149.114 23.6837 147.925 24.398 147.999C24.9799 148.06 25.2575 148.67 25.1712 149.499C25.038 150.777 24.1784 151.902 23.7647 152.387L25.0112 153.342C25.4744 152.895 26.4925 151.582 26.6981 149.608C26.8091 148.542 26.7348 146.115 24.427 145.875C22.4746 145.671 21.7867 148.354 21.5774 148.926Z" fill="#B9D1F0"/>
</g>
<path d="M293.086 298.036L297.219 295.333L291.025 285.863L289.13 287.102L291.207 290.277L288.9 291.785C287.21 292.89 286.8 295.199 287.924 296.917C288.878 298.376 291.194 299.273 293.086 298.036ZM290.065 293.327L292.262 291.89L294.268 294.958L292.154 296.341C291.35 296.867 290.37 296.461 289.846 295.66C289.237 294.729 289.401 293.762 290.065 293.327Z" fill="#B9D1F0"/>
<path d="M282.543 297.388C282.849 297.276 284.117 296.707 284.533 297.343C284.866 297.853 284.617 298.412 283.949 298.849C283.044 299.441 281.897 299.467 281.356 299.44L281.321 301.005C281.936 301.086 283.186 301.157 284.764 300.125C286.268 299.141 287.051 297.446 286.084 295.967C285.079 294.431 282.791 295.518 282.242 295.699C281.585 295.913 280.437 296.386 280.044 295.785C279.724 295.295 280.021 294.695 280.719 294.239C281.795 293.535 283.21 293.492 283.847 293.507L283.801 291.938C283.162 291.86 281.501 291.899 279.84 292.985C278.943 293.572 277.108 295.161 278.377 297.103C279.452 298.746 281.967 297.587 282.543 297.388Z" fill="#B9D1F0"/>
<path d="M120.26 37.3878L115.73 39.3555L120.239 49.7341L122.316 48.832L120.804 45.3529L123.332 44.2547C125.184 43.4504 125.978 41.2439 125.159 39.3603C124.465 37.7621 122.333 36.4873 120.26 37.3878ZM122.444 42.5383L120.036 43.5842L118.575 40.2221L120.893 39.2154C121.774 38.8325 122.672 39.3984 123.053 40.2754C123.496 41.2963 123.172 42.2218 122.444 42.5383Z" fill="#B9D1F0"/>
<path d="M130.536 39.8031C130.216 39.8615 128.87 40.209 128.567 39.5117C128.324 38.9528 128.665 38.4441 129.396 38.1263C130.389 37.6951 131.524 37.8625 132.052 37.9805L132.35 36.4434C131.758 36.2606 130.538 35.9795 128.808 36.731C127.16 37.4469 126.103 38.9858 126.807 40.6065C127.538 42.29 129.977 41.6042 130.548 41.5183C131.232 41.4184 132.443 41.1457 132.729 41.8044C132.962 42.341 132.568 42.8824 131.804 43.2144C130.624 43.7267 129.222 43.5308 128.597 43.4086L128.378 44.9633C128.994 45.1473 130.638 45.3888 132.458 44.5981C133.441 44.171 135.519 42.9138 134.594 40.7857C133.812 38.9853 131.137 39.7043 130.536 39.8031Z" fill="#B9D1F0"/>
<g clip-path="url(#clip2)">
<path d="M370.027 122.744L355.332 125.148L357.807 140.276L372.502 137.872L370.027 122.744ZM358.523 139.248L356.338 125.894L369.311 123.771L371.496 137.126L358.523 139.248Z" fill="#B9D1F0"/>
<path d="M365.845 129.892L365.496 127.758L360.605 128.558L360.765 129.536L362.405 129.268L362.6 130.46C362.742 131.332 363.594 131.906 364.482 131.761C365.235 131.638 366.005 130.869 365.845 129.892ZM363.424 130.266L363.238 129.132L364.823 128.873L365.001 129.965C365.069 130.38 364.733 130.7 364.319 130.768C363.838 130.847 363.48 130.61 363.424 130.266Z" fill="#B9D1F0"/>
<path d="M363.715 133.998C363.725 133.856 363.722 133.247 364.05 133.193C364.314 133.15 364.493 133.349 364.55 133.694C364.626 134.162 364.433 134.626 364.326 134.837L364.947 135.129C365.088 134.897 365.338 134.409 365.205 133.594C365.078 132.818 364.538 132.204 363.774 132.328C362.981 132.458 363.011 133.567 362.986 133.819C362.955 134.12 362.94 134.664 362.63 134.714C362.377 134.756 362.19 134.53 362.131 134.17C362.04 133.614 362.274 133.04 362.393 132.787L361.756 132.528C361.612 132.77 361.333 133.442 361.473 134.299C361.549 134.763 361.859 135.78 362.862 135.616C363.711 135.477 363.693 134.264 363.715 133.998Z" fill="#B9D1F0"/>
</g>
<g clip-path="url(#clip3)">
<path d="M294.207 10.4727L284.98 20.6112L295.119 29.8379L304.346 19.6994L294.207 10.4727ZM295.065 28.7032L286.115 20.5578L294.26 11.6073L303.211 19.7528L295.065 28.7032Z" fill="#B9D1F0"/>
<path d="M294.938 17.7124L294.358 17.1848L290 19.3869L290.674 20.0011L291.749 19.441L292.927 20.5136L292.476 21.6403L293.15 22.2544L294.938 17.7124ZM292.278 19.0795L293.969 18.1947L293.228 19.9445L292.278 19.0795Z" fill="#B9D1F0"/>
<path d="M296.993 23.456C297.775 22.5968 297.492 21.573 296.859 20.9969C295.973 20.1899 294.92 20.4829 294.358 21.101C293.731 21.7898 293.711 22.8493 294.506 23.5731C295.263 24.2617 295.993 24.0838 296.258 23.9773L295.85 23.3279C295.717 23.3918 295.307 23.4505 294.954 23.129C294.408 22.6321 294.78 22.0121 294.86 21.9052L296.784 23.6569C296.814 23.6373 296.956 23.4972 296.993 23.456ZM295.227 21.4831C295.588 21.1447 296.095 21.1442 296.43 21.4492C296.756 21.7456 296.842 22.2275 296.519 22.6595L295.227 21.4831Z" fill="#B9D1F0"/>
</g>
<g clip-path="url(#clip4)">
<path d="M229.839 336.569L230.369 339.278L231.004 339.154L230.365 335.888L228.065 336.338L228.174 336.894L229.839 336.569Z" fill="#B9D1F0"/>
<path d="M234.781 342.029L232.862 332.215L223.048 334.134L224.967 343.948L234.781 342.029ZM223.735 334.597L232.399 332.903L234.094 341.567L225.43 343.261L223.735 334.597Z" fill="#B9D1F0"/>
<path d="M226.669 338.56L226.779 339.121C227.347 339.07 227.515 338.499 227.542 338.408L227.643 338.923L228.209 338.813L227.737 336.402L227.121 336.522L227.406 337.981C227.368 338.131 227.211 338.454 226.669 338.56Z" fill="#B9D1F0"/>
</g>
<g clip-path="url(#clip5)">
<path d="M166.186 21.0013L165.275 17.8589L164.539 18.0723L165.637 21.8603L168.304 21.0872L168.117 20.4417L166.186 21.0013Z" fill="#B9D1F0"/>
<path d="M159.777 15.0762L163.076 26.458L174.458 23.1596L171.159 11.7778L159.777 15.0762ZM173.597 22.686L163.549 25.5978L160.638 15.5498L170.686 12.638L173.597 22.686Z" fill="#B9D1F0"/>
<path d="M169.718 18.3174L169.529 17.6665C168.864 17.7858 168.725 18.4778 168.703 18.5883L168.53 17.9907L167.874 18.1809L168.684 20.9765L169.399 20.7694L168.909 19.0781C168.937 18.8964 169.089 18.4996 169.718 18.3174Z" fill="#B9D1F0"/>
</g>
<path d="M339.662 189.85L342.915 190.197L342.996 189.435L339.074 189.017L338.78 191.779L339.449 191.85L339.662 189.85Z" fill="#B9D1F0"/>
<path d="M340.809 194.134L341.483 194.206C341.624 193.545 341.036 193.155 340.942 193.093L341.561 193.159L341.633 192.479L338.739 192.171L338.66 192.911L340.411 193.098C340.569 193.193 340.878 193.483 340.809 194.134Z" fill="#B9D1F0"/>
<g clip-path="url(#clip6)">
<path d="M118.296 333.437L119.665 334.303L122.816 332.901L122.907 336.355L124.285 337.228L124.054 332.45L128.339 330.659L126.962 329.787L123.933 331.138L123.866 327.828L122.497 326.962L122.713 331.601L118.296 333.437Z" fill="#B5CCF0"/>
<path d="M124.113 346.854L136.516 327.258L116.92 314.855L104.517 334.451L124.113 346.854ZM117.342 316.73L134.641 327.679L123.692 344.979L106.392 334.029L117.342 316.73Z" fill="#B5CCF0"/>
<path d="M116.558 325.184L113.209 330.475L114.44 331.254L116.172 328.517C116.157 328.893 116.244 329.862 117.211 330.474C118.352 331.196 119.988 330.842 120.936 329.345C121.772 328.024 121.643 326.293 120.23 325.399C119.265 324.788 118.342 325.074 117.971 325.268C117.971 325.268 118.621 324.419 117.732 323.856C117.598 323.771 117.41 323.682 117.168 323.589L116.505 324.636C116.606 324.708 116.639 325.055 116.558 325.184ZM117.567 326.312C117.684 326.223 118.473 325.753 119.246 326.242C120.062 326.759 120.12 327.808 119.676 328.509C119.272 329.147 118.326 329.713 117.488 329.182C116.738 328.707 116.805 327.626 116.841 327.46L117.567 326.312Z" fill="#B5CCF0"/>
</g>
<g clip-path="url(#clip7)">
<path d="M353.973 271.65L356.127 267.95C356.194 267.835 356.155 267.688 356.04 267.621C355.925 267.554 355.778 267.593 355.711 267.708L353.557 271.408C353.438 271.612 353.176 271.681 352.973 271.562L340.351 264.214C340.147 264.095 340.078 263.833 340.197 263.63L347.185 251.627C347.303 251.423 347.565 251.354 347.769 251.472L360.391 258.821C360.594 258.94 360.664 259.202 360.545 259.405L356.279 266.733C356.212 266.848 356.251 266.995 356.366 267.062C356.48 267.129 356.628 267.09 356.695 266.975L360.961 259.647C361.213 259.214 361.066 258.657 360.633 258.405L348.011 251.057C347.578 250.805 347.021 250.952 346.769 251.385L339.781 263.388C339.529 263.82 339.676 264.378 340.109 264.63L352.731 271.978C353.163 272.23 353.721 272.083 353.973 271.65V271.65Z" fill="#B9D1F0"/>
<path d="M358.672 258.875L348.572 252.995C348.139 252.743 347.582 252.89 347.33 253.323L341.744 262.917C341.492 263.35 341.639 263.907 342.072 264.159L352.172 270.039C352.605 270.291 353.162 270.144 353.414 269.711L359 260.117C359.252 259.684 359.105 259.127 358.672 258.875ZM352.414 269.623L342.314 263.743C342.111 263.625 342.041 263.363 342.16 263.159L347.746 253.565C347.864 253.361 348.126 253.292 348.33 253.411L358.43 259.291C358.633 259.409 358.703 259.671 358.584 259.875L352.998 269.469C352.88 269.673 352.618 269.742 352.414 269.623Z" fill="#B9D1F0"/>
<path d="M348.732 256.373C348.487 256.794 348.63 257.336 349.051 257.581L349.485 257.834C349.6 257.901 349.747 257.862 349.814 257.747C349.881 257.632 349.842 257.485 349.727 257.418L349.293 257.165C349.101 257.054 349.036 256.807 349.148 256.615C349.26 256.423 349.507 256.358 349.698 256.469L355.096 259.612C355.192 259.668 355.253 259.748 355.282 259.856C355.311 259.964 355.297 260.067 355.241 260.162L354.366 261.665C354.075 262.165 353.606 262.526 353.044 262.683C352.476 262.841 351.888 262.768 351.388 262.477C350.889 262.186 350.535 261.71 350.392 261.138C350.251 260.573 350.333 259.986 350.624 259.486C350.754 259.263 350.994 258.846 351.172 258.536C351.238 258.421 351.199 258.275 351.085 258.208L350.694 257.98C350.579 257.914 350.431 257.952 350.364 258.067C350.298 258.182 350.336 258.329 350.451 258.396L350.636 258.504C350.481 258.773 350.311 259.068 350.208 259.244C349.854 259.853 349.753 260.567 349.925 261.255C350.099 261.954 350.533 262.536 351.146 262.892C351.759 263.249 352.479 263.339 353.173 263.146C353.856 262.956 354.427 262.516 354.782 261.907L355.657 260.404C355.777 260.197 355.809 259.965 355.747 259.733C355.686 259.502 355.544 259.316 355.338 259.196L349.94 256.054C349.519 255.808 348.977 255.952 348.732 256.373Z" fill="#B9D1F0"/>
<path d="M352.007 258.838C351.945 258.855 351.893 258.895 351.861 258.95L351.861 258.951C351.603 259.399 351.42 259.716 351.318 259.891C350.938 260.544 351.154 261.41 351.791 261.781C352.429 262.152 353.288 261.913 353.668 261.26L354.219 260.314C354.251 260.259 354.26 260.193 354.243 260.132C354.227 260.07 354.187 260.017 354.131 259.985C353.776 259.78 353.35 259.533 353.163 259.424C352.985 259.32 352.666 259.136 352.189 258.862C352.134 258.83 352.068 258.822 352.007 258.838ZM353.252 261.018C353.003 261.445 352.445 261.604 352.034 261.365C351.622 261.125 351.485 260.561 351.734 260.133C351.82 259.986 351.962 259.739 352.158 259.399C352.52 259.608 353.381 260.107 353.681 260.281L353.252 261.018L353.252 261.018Z" fill="#B9D1F0"/>
<path d="M345.794 261.416C345.549 261.837 345.692 262.379 346.114 262.624L347.955 263.696C347.982 263.736 348.055 263.861 348.142 264.162C348.197 264.351 348.217 264.741 348.212 264.946C348.202 265.432 348.589 265.837 349.075 265.849C349.563 265.86 349.968 265.473 349.979 264.986C349.98 264.945 349.983 264.771 349.971 264.545C350.182 264.481 350.366 264.339 350.48 264.144C350.725 263.723 350.582 263.18 350.161 262.935L347.003 261.097C346.582 260.851 346.04 260.995 345.794 261.416ZM349.919 263.351C350.111 263.463 350.176 263.71 350.064 263.902C349.992 264.025 349.859 264.101 349.715 264.101C349.647 264.101 349.583 264.129 349.537 264.18C349.491 264.23 349.469 264.297 349.475 264.364C349.504 264.667 349.499 264.926 349.498 264.974C349.493 265.196 349.308 265.373 349.087 265.368L349.087 265.368C348.865 265.362 348.689 265.178 348.693 264.956C348.697 264.794 348.688 264.312 348.604 264.027C348.473 263.578 348.351 263.399 348.271 263.329C348.259 263.318 348.246 263.309 348.233 263.301L346.356 262.208C346.164 262.097 346.099 261.85 346.21 261.658C346.322 261.466 346.569 261.401 346.761 261.513L349.919 263.351Z" fill="#B9D1F0"/>
</g>
<g clip-path="url(#clip8)">
<path d="M65.6262 74.1882L65.1133 74.9346L68.9534 77.5733L69.4663 76.827L65.6262 74.1882Z" fill="#B9D1F0"/>
<path d="M58.4766 75.8242L70.015 83.753L77.9437 72.2145L66.4053 64.2858L58.4766 75.8242ZM76.8031 72.426L69.8035 82.6123L59.6172 75.6127L66.6168 65.4264L76.8031 72.426Z" fill="#B9D1F0"/>
<path d="M71.0198 72.7829L67.9044 70.6422L67.4064 71.3669L69.0182 72.4745C68.7915 72.4568 68.2053 72.4871 67.8141 73.0564C67.3523 73.7284 67.5285 74.7234 68.4101 75.3292C69.1878 75.8635 70.235 75.8254 70.8067 74.9934C71.197 74.4254 71.0453 73.8622 70.9369 73.6336C70.9369 73.6336 71.4344 74.0452 71.794 73.5219C71.8484 73.4427 71.9064 73.3312 71.968 73.1876L71.3514 72.7639C71.3057 72.8228 71.0955 72.835 71.0198 72.7829ZM70.3163 73.3664C70.3674 73.4388 70.6327 73.9256 70.3202 74.3804C69.9901 74.8609 69.356 74.8724 68.943 74.5886C68.5672 74.3304 68.2476 73.7465 68.5868 73.2529C68.8903 72.8113 69.541 72.8763 69.6402 72.9019L70.3163 73.3664Z" fill="#B9D1F0"/>
</g>
<g clip-path="url(#clip9)">
<path d="M377.486 197.954L377.457 196.515L370.053 196.664L370.082 198.103L377.486 197.954Z" fill="#B9D1F0"/>
<path d="M385.203 189.219L362.955 189.668L363.404 211.915L385.652 211.466L385.203 189.219ZM364.681 210.585L364.285 190.945L383.926 190.549L384.322 210.189L364.681 210.585Z" fill="#B9D1F0"/>
<path d="M371.823 204.766L377.829 204.644L377.801 203.247L374.694 203.31C375.003 203.123 375.732 202.54 375.71 201.443C375.683 200.147 374.534 199.025 372.834 199.059C371.335 199.09 370.018 200.109 370.05 201.713C370.072 202.809 370.79 203.395 371.142 203.59C371.142 203.59 370.118 203.519 370.138 204.528C370.141 204.681 370.17 204.879 370.223 205.121L371.412 205.097C371.416 204.979 371.677 204.769 371.823 204.766ZM372.191 203.36C372.058 203.314 371.264 202.931 371.246 202.054C371.228 201.128 372.036 200.526 372.832 200.51C373.557 200.495 374.51 200.953 374.53 201.905C374.547 202.756 373.646 203.275 373.494 203.334L372.191 203.36Z" fill="#B9D1F0"/>
</g>
<g clip-path="url(#clip10)">
<path d="M189.271 328.872L190.176 328.914L190.391 324.26L189.486 324.218L189.271 328.872Z" fill="#B9D1F0"/>
<path d="M194.434 334.082L195.08 320.097L181.095 319.451L180.449 333.436L194.434 334.082ZM181.877 320.308L194.223 320.879L193.652 333.225L181.306 332.654L181.877 320.308Z" fill="#B9D1F0"/>
<path d="M185.231 325.033L185.056 328.808L185.935 328.849L186.025 326.896C186.13 327.097 186.465 327.579 187.155 327.611C187.969 327.649 188.721 326.974 188.771 325.906C188.814 324.963 188.229 324.094 187.221 324.047C186.532 324.015 186.134 324.441 185.997 324.654C185.997 324.654 186.084 324.014 185.45 323.985C185.354 323.981 185.229 323.99 185.074 324.014L185.04 324.761C185.114 324.769 185.235 324.941 185.231 325.033ZM186.098 325.322C186.132 325.241 186.406 324.758 186.957 324.784C187.539 324.811 187.884 325.343 187.86 325.844C187.839 326.299 187.512 326.879 186.914 326.851C186.379 326.826 186.09 326.239 186.06 326.142L186.098 325.322Z" fill="#B9D1F0"/>
</g>
<defs>
<clipPath id="clip0">
<rect width="110" height="110" fill="white" transform="translate(142 120.68)"/>
</clipPath>
<clipPath id="clip1">
<rect width="35" height="34" fill="white" transform="translate(0.917969 169.932) rotate(-84.053)"/>
</clipPath>
<clipPath id="clip2">
<rect width="15.3286" height="14.8906" fill="white" transform="translate(370.027 122.744) rotate(80.7098)"/>
</clipPath>
<clipPath id="clip3">
<rect width="13.7085" height="13.7085" fill="white" transform="translate(294.207 10.4727) rotate(42.3043)"/>
</clipPath>
<clipPath id="clip4">
<rect width="10" height="10" fill="white" transform="translate(234.781 342.029) rotate(168.935)"/>
</clipPath>
<clipPath id="clip5">
<rect width="11.8501" height="11.8501" fill="white" transform="translate(159.777 15.0762) rotate(-16.1612)"/>
</clipPath>
<clipPath id="clip6">
<rect width="23.1913" height="23.1913" fill="white" transform="translate(124.113 346.854) rotate(-147.669)"/>
</clipPath>
<clipPath id="clip7">
<rect width="16.4219" height="16.4219" fill="white" transform="translate(361.598 258.553) rotate(120.209)"/>
</clipPath>
<clipPath id="clip8">
<rect width="14" height="14" fill="white" transform="translate(58.4766 75.8242) rotate(-55.5047)"/>
</clipPath>
<clipPath id="clip9">
<rect width="22.2522" height="22.2522" fill="white" transform="translate(385.203 189.219) rotate(88.8444)"/>
</clipPath>
<clipPath id="clip10">
<rect width="14" height="14" fill="white" transform="translate(194.434 334.082) rotate(-177.353)"/>
</clipPath>
</defs>
</svg>
