<svg width="60" height="69" viewBox="0 0 60 69" fill="none" xmlns="http://www.w3.org/2000/svg">
<path d="M25.0439 29.264C25.0439 29.264 15.5249 25.5637 12.2987 28.108C9.07254 30.6523 -0.60606 58.1583 1.18374 62.7653C2.97354 67.3723 16.3172 65.0518 16.3172 65.0518C16.3172 65.0518 53.789 67.2675 57.5966 65.8452C63.2596 63.7258 50.6854 30.5333 48.8101 28.771C46.9348 27.0087 38.2651 30.0488 38.2651 30.0488" fill="#430099"/>
<path d="M17.196 57.4502C17.1674 57.45 17.1395 57.4411 17.1162 57.4247C12.653 54.3959 6.92455 55.1722 6.85615 55.1807C6.81874 55.1855 6.78094 55.1754 6.75102 55.1526C6.72111 55.1297 6.70152 55.096 6.69655 55.0589C6.69165 55.0221 6.70143 54.9849 6.72381 54.9552C6.74619 54.9256 6.77938 54.9058 6.81625 54.9002C6.8761 54.9002 12.7101 54.0984 17.2644 57.1895C17.28 57.2001 17.2934 57.2136 17.3037 57.2293C17.3141 57.245 17.3212 57.2625 17.3246 57.281C17.328 57.2995 17.3278 57.3184 17.3238 57.3368C17.3198 57.3551 17.3122 57.3725 17.3014 57.3879C17.2898 57.4056 17.2742 57.4204 17.2559 57.4312C17.2377 57.442 17.2171 57.4485 17.196 57.4502Z" fill="#231F20"/>
<path d="M44.8199 57.4501C44.7886 57.4513 44.7579 57.4422 44.7323 57.4243C44.7068 57.4065 44.6879 57.3807 44.6785 57.3511C44.6691 57.3215 44.6697 57.2896 44.6804 57.2604C44.691 57.2312 44.711 57.2062 44.7372 57.1894C49.2972 54.0982 55.1283 54.8916 55.1882 54.9001C55.225 54.9057 55.2582 54.9254 55.2806 54.9551C55.303 54.9848 55.3128 55.022 55.3079 55.0587C55.3022 55.0961 55.282 55.1298 55.2517 55.1526C55.2213 55.1754 55.1831 55.1854 55.1454 55.1806C55.0884 55.1806 49.3599 54.3957 44.8997 57.4246C44.8762 57.4407 44.8484 57.4495 44.8199 57.4501Z" fill="#231F20"/>
<path d="M14.3022 53.3585C14.2835 53.3575 14.2651 53.3527 14.2483 53.3446C14.2314 53.3364 14.2163 53.3251 14.2039 53.3111C14.1914 53.2972 14.1819 53.2809 14.1757 53.2633C14.1696 53.2456 14.1671 53.227 14.1682 53.2084L15.1686 36.3444C15.1697 36.3258 15.1745 36.3075 15.1826 36.2908C15.1908 36.274 15.2023 36.259 15.2163 36.2466C15.2303 36.2342 15.2467 36.2247 15.2644 36.2187C15.2822 36.2126 15.3009 36.2101 15.3196 36.2112C15.3385 36.2119 15.357 36.2164 15.3741 36.2244C15.3911 36.2324 15.4064 36.2438 15.4189 36.2578C15.4314 36.2719 15.441 36.2883 15.4469 36.3061C15.4529 36.3239 15.4552 36.3427 15.4536 36.3614L14.4532 53.2254C14.4503 53.2627 14.4329 53.2974 14.4048 53.3223C14.3766 53.3471 14.3398 53.3601 14.3022 53.3585Z" fill="#231F20"/>
<path d="M44.8183 53.3591C44.7805 53.3591 44.7442 53.3442 44.7175 53.3176C44.6908 53.2911 44.6758 53.255 44.6758 53.2174V37.0674C44.6758 37.0299 44.6908 36.9938 44.7175 36.9673C44.7442 36.9407 44.7805 36.9258 44.8183 36.9258C44.8561 36.9258 44.8923 36.9407 44.919 36.9673C44.9458 36.9938 44.9608 37.0299 44.9608 37.0674V53.2174C44.9608 53.255 44.9458 53.2911 44.919 53.3176C44.8923 53.3442 44.8561 53.3591 44.8183 53.3591Z" fill="#231F20"/>
<path d="M21.75 28.1963C21.75 28.1963 25.0161 45.1708 31.155 53.2175C31.155 53.2175 39.4713 38.4048 41.0901 29.1766C41.0901 29.1766 34.7802 30.3808 32.446 30.4035C30.1119 30.4261 21.75 28.1963 21.75 28.1963Z" fill="#231F20"/>
<path d="M31.1389 53.3585C31.1167 53.3589 31.0947 53.354 31.0749 53.3441C31.055 53.3343 31.0379 53.3197 31.0249 53.3018C24.943 45.3203 21.6342 28.394 21.6 28.224C21.5957 28.2004 21.5974 28.1762 21.6048 28.1534C21.6123 28.1307 21.6253 28.1101 21.6427 28.0936C21.6602 28.0769 21.6817 28.065 21.7052 28.059C21.7287 28.053 21.7533 28.0533 21.7767 28.0596C21.8593 28.0823 30.0417 30.2611 32.3901 30.2611H32.4271C34.7242 30.2385 40.9771 29.0513 41.0484 29.0371C41.071 29.033 41.0942 29.0344 41.1161 29.0414C41.1379 29.0483 41.1578 29.0605 41.1738 29.0768C41.1904 29.0926 41.2028 29.1123 41.2098 29.1341C41.2168 29.1558 41.2181 29.179 41.2137 29.2015C39.6091 38.3475 31.3441 53.1375 31.2615 53.2848C31.2504 53.3057 31.2341 53.3235 31.2141 53.3364C31.1942 53.3493 31.1712 53.3569 31.1475 53.3585H31.1389ZM21.9334 28.3911C22.341 30.4 25.5472 45.462 31.1275 52.9561C32.0937 51.2051 39.3298 37.897 40.9059 29.3545C39.7887 29.5641 34.5532 30.5218 32.4385 30.5445H32.4015C30.2127 30.5331 23.2929 28.7481 21.9334 28.3911Z" fill="#231F20"/>
<path d="M29.1911 34.4746L30.5106 36.7498L27.1875 46.5304L31.149 53.2171L34.7628 46.2188L32.1465 36.7923L33.5231 34.4746L31.34 32.3213L29.1911 34.4746Z" fill="#D1D3D4"/>
<path d="M31.1408 53.3591C31.1154 53.3594 31.0904 53.3531 31.0684 53.3406C31.0463 53.3282 31.028 53.3101 31.0154 53.2883L27.0567 46.6016C27.0477 46.5835 27.043 46.5637 27.043 46.5435C27.043 46.5233 27.0477 46.5035 27.0567 46.4854L30.357 36.7671L29.0688 34.5486C29.0534 34.5217 29.0473 34.4905 29.0514 34.4598C29.0555 34.4291 29.0696 34.4006 29.0916 34.3786L31.2377 32.2253C31.2493 32.2096 31.265 32.1974 31.2831 32.1899C31.3011 32.1824 31.3209 32.18 31.3403 32.1828C31.3589 32.1825 31.3775 32.1862 31.3947 32.1935C31.4118 32.2008 31.4273 32.2116 31.44 32.2253L33.6231 34.3786C33.6462 34.4005 33.661 34.4296 33.6652 34.461C33.6693 34.4924 33.6625 34.5244 33.6459 34.5514L32.3007 36.8181L34.9028 46.1879C34.9141 46.221 34.9141 46.2568 34.9028 46.2899L31.2861 53.2883C31.2742 53.3105 31.2566 53.3293 31.2351 53.3427C31.2136 53.3562 31.1889 53.3638 31.1636 53.3648L31.1408 53.3591ZM27.3446 46.5138L31.1408 52.9171L34.6121 46.1993L32.01 36.8238C32.0024 36.8063 31.9985 36.7875 31.9985 36.7685C31.9985 36.7495 32.0024 36.7307 32.01 36.7133L33.3296 34.4919L31.3346 32.5086L29.3652 34.4919L30.6306 36.6736C30.6384 36.692 30.6424 36.7117 30.6424 36.7317C30.6424 36.7516 30.6384 36.7714 30.6306 36.7898L27.3446 46.5138Z" fill="#231F20"/>
<path d="M24.5655 27.5781L37.0827 27.6178L36.8633 32.3693H28.0226L23.7305 30.3265L24.5655 27.5781Z" fill="#231F20"/>
<path d="M36.8636 32.5174H28.0286C28.0088 32.5213 27.9885 32.5213 27.9687 32.5174L23.6738 30.4745C23.6434 30.4593 23.6193 30.434 23.6057 30.4029C23.5922 30.3718 23.5901 30.337 23.5997 30.3045L24.4347 27.559C24.443 27.5294 24.4608 27.5033 24.4856 27.4848C24.5104 27.4663 24.5406 27.4566 24.5715 27.457L37.0916 27.4967C37.1305 27.4979 37.1673 27.5141 37.1942 27.542C37.2069 27.5557 37.2168 27.5718 37.2231 27.5893C37.2295 27.6068 37.2323 27.6254 37.2312 27.644L37.0118 32.3955C37.0069 32.4306 36.9889 32.4625 36.9615 32.4851C36.9341 32.5076 36.8991 32.5191 36.8636 32.5174ZM28.0571 32.234H36.7268L36.9348 27.7659L24.6798 27.7262L23.9018 30.2507L28.0571 32.234Z" fill="#231F20"/>
<path d="M40.34 15.517C41.0097 14.0465 41.195 12.0716 41.4486 10.4963C41.5626 9.78512 41.9303 8.85012 41.8305 8.13328C41.7593 7.63178 41.4144 7.22662 41.3831 6.65995C41.3574 6.15562 41.3603 5.61728 41.0781 5.19795C40.796 4.77862 40.0977 4.60012 39.7928 5.00245C40.1973 3.74346 40.4368 2.43786 40.5053 1.11795C39.4272 1.60934 38.2365 1.80499 37.0568 1.68462C37.5348 1.30148 37.9385 0.834838 38.2481 0.307617C37.2164 1.08962 35.7714 0.828951 34.4832 0.664617C31.5449 0.290617 28.4412 0.664618 25.8762 2.14645C25.0526 2.62245 24.2232 3.31945 24.1292 4.26578C23.803 4.20264 23.4658 4.22652 23.1519 4.33502C22.838 4.44352 22.5587 4.63275 22.3422 4.88345C21.9141 5.39174 21.6263 6.002 21.5072 6.65428C20.6522 10.4 22.0772 13.6186 22.442 17.3133C25.2236 17.4833 28.0308 17.7185 30.8381 17.676C33.0696 17.6306 39.1487 18.118 40.34 15.517Z" fill="white"/>
<path d="M33.1362 17.8233C32.7087 17.8233 32.304 17.8233 31.9306 17.8233C31.5145 17.8233 31.1469 17.8233 30.8505 17.8233C28.5705 17.8601 26.2648 17.7071 24.0361 17.5626L22.443 17.4606C22.409 17.4588 22.3769 17.4449 22.3523 17.4215C22.3277 17.3981 22.3124 17.3668 22.309 17.3331C22.1893 16.1403 21.9556 14.9843 21.739 13.8651C21.2517 11.4596 20.7928 9.18731 21.3856 6.62881C21.5025 5.95331 21.7975 5.32072 22.2406 4.79564C22.4576 4.54426 22.7321 4.34843 23.0411 4.22466C23.3501 4.10089 23.6846 4.05281 24.0162 4.08448C24.1558 3.31664 24.76 2.61964 25.8117 2.01331C28.1943 0.636309 31.2837 0.103643 34.5099 0.511643L34.7949 0.548476C36.009 0.707142 37.2658 0.874309 38.175 0.185809C38.2001 0.164823 38.2319 0.15332 38.2648 0.15332C38.2976 0.15332 38.3294 0.164823 38.3545 0.185809C38.3795 0.207606 38.3959 0.237366 38.4011 0.269954C38.4063 0.302541 38.3999 0.335913 38.383 0.364309C38.1206 0.8078 37.7931 1.20984 37.4112 1.55714C38.455 1.61451 39.4974 1.4201 40.4493 0.990476C40.4716 0.980175 40.4962 0.975785 40.5207 0.977732C40.5452 0.979679 40.5688 0.987897 40.5892 1.00159C40.6095 1.01528 40.626 1.03397 40.6369 1.05586C40.6479 1.07774 40.6529 1.10207 40.6516 1.12648C40.589 2.32633 40.3863 3.51486 40.0474 4.66814C40.1348 4.64489 40.225 4.63439 40.3153 4.63697C40.4904 4.64416 40.6614 4.69135 40.8151 4.77488C40.9688 4.85842 41.1011 4.97605 41.2017 5.11864C41.435 5.54537 41.5464 6.02746 41.5237 6.51264V6.65147C41.5519 6.92329 41.6281 7.18802 41.7489 7.43347C41.8517 7.64959 41.9255 7.87822 41.9683 8.11347C41.9986 8.68007 41.9252 9.24742 41.7517 9.78797C41.6862 10.0486 41.6235 10.2951 41.5864 10.519C41.5408 10.8023 41.4952 11.1168 41.4496 11.4285C41.2501 12.8026 41.0221 14.361 40.4664 15.5736C39.543 17.5966 35.9007 17.8233 33.1362 17.8233ZM31.1155 17.5201H31.9335C34.4814 17.5541 39.2266 17.6165 40.2184 15.4376C40.7571 14.259 40.9822 12.7233 41.1789 11.369C41.2245 11.0545 41.2701 10.7485 41.3185 10.4538C41.3556 10.2186 41.4183 9.96647 41.4838 9.70014C41.6426 9.19941 41.7111 8.67474 41.6862 8.15031C41.647 7.93938 41.58 7.73455 41.4867 7.54114C41.3516 7.26556 41.2676 6.96802 41.2387 6.66281V6.52397C41.2578 6.08963 41.1594 5.65815 40.9537 5.27447C40.8788 5.16951 40.7809 5.08284 40.6673 5.021C40.5538 4.95915 40.4276 4.92376 40.2982 4.91747C40.2235 4.91102 40.1483 4.92288 40.0792 4.95202C40.0102 4.98117 39.9493 5.0267 39.9021 5.08464C39.8821 5.11175 39.8531 5.13091 39.8202 5.13869C39.7873 5.14648 39.7527 5.14239 39.7225 5.12714C39.693 5.11107 39.6699 5.08547 39.6569 5.05457C39.644 5.02367 39.642 4.98931 39.6513 4.95714C40.0293 3.78357 40.2618 2.56854 40.3438 1.33898C39.299 1.7731 38.1613 1.93968 37.035 1.82348C37.0069 1.82083 36.9803 1.8096 36.9589 1.79134C36.9374 1.77308 36.9222 1.74868 36.9153 1.72148C36.9068 1.69479 36.9066 1.66617 36.9147 1.63938C36.9229 1.61258 36.939 1.58885 36.9609 1.57131C37.2705 1.32279 37.548 1.03731 37.7874 0.721309C36.8611 1.10948 35.7439 0.962142 34.7407 0.828976L34.4557 0.794976C31.2922 0.392643 28.2684 0.911143 25.9399 2.25698C24.8997 2.85764 24.3354 3.53481 24.2613 4.26864C24.2595 4.28897 24.2532 4.30865 24.2428 4.32628C24.2325 4.34391 24.2183 4.35906 24.2014 4.37064C24.1845 4.38209 24.1654 4.38979 24.1452 4.39321C24.125 4.39663 24.1044 4.3957 24.0846 4.39047C23.7837 4.33217 23.4727 4.35387 23.1829 4.45337C22.8932 4.55287 22.635 4.72665 22.4344 4.95714C22.0227 5.44454 21.7466 6.03066 21.6336 6.65714C21.0636 9.15897 21.5082 11.4001 21.9898 13.7745C22.2093 14.8625 22.4344 15.9873 22.5598 17.1518L24.0333 17.2453C26.2591 17.3898 28.5591 17.5286 30.8248 17.506L31.1155 17.5201Z" fill="#231F20"/>
<path d="M25.043 31.0066C25.043 31.0066 27.36 32.1852 31.3386 32.3212C35.3172 32.4572 35.9841 31.3834 35.9841 31.3834L35.8872 29.2669L35.6706 24.3482L35.454 19.7667L26.3739 19.4551L25.9407 23.1667L25.8068 24.3794L25.043 31.0066Z" fill="white"/>
<path d="M32.0144 32.4747C31.7978 32.4747 31.5726 32.4747 31.3332 32.4747C27.3689 32.3387 25.0034 31.1572 24.9806 31.1459C24.9543 31.1335 24.9326 31.1131 24.9188 31.0876C24.9049 31.0621 24.8996 31.0329 24.9036 31.0042L26.2318 19.4357C26.2332 19.4178 26.2382 19.4004 26.2464 19.3845C26.2546 19.3685 26.266 19.3543 26.2798 19.3427C26.2935 19.3311 26.3095 19.3224 26.3267 19.3169C26.3439 19.3115 26.362 19.3095 26.38 19.3111L35.46 19.6227C35.4959 19.6241 35.5299 19.6389 35.5552 19.6641C35.5806 19.6893 35.5954 19.7231 35.5968 19.7587L36.1212 31.3754C36.1225 31.4045 36.1145 31.4332 36.0984 31.4576C36.0728 31.5057 35.4144 32.4747 32.0144 32.4747ZM25.1972 30.9249C25.656 31.1317 27.8734 32.0582 31.3446 32.1801C34.7646 32.2962 35.6795 31.5057 35.8334 31.3301L35.3204 19.8834L26.4997 19.5774L25.1972 30.9249Z" fill="#231F20"/>
<path d="M25.8086 24.3914C26.4555 25.5247 27.5613 26.4115 28.7013 27.0944C30.6165 28.2277 33.5007 29.548 35.8834 29.2704L35.6668 24.3517C33.9209 24.5079 32.1626 24.4584 30.4284 24.2044C28.9008 24.0202 27.3276 23.8134 25.9425 23.1787L25.8086 24.3914Z" fill="#231F20"/>
<path d="M35.2038 29.4489C32.7585 29.4489 30.0738 28.0832 28.626 27.2162C27.2551 26.3946 26.2633 25.4681 25.6819 24.4622C25.6678 24.4362 25.6618 24.4066 25.6648 24.3772L25.7988 23.1646C25.8015 23.1424 25.8093 23.1211 25.8217 23.1024C25.834 23.0837 25.8506 23.0681 25.87 23.0569C25.8903 23.0465 25.9128 23.041 25.9356 23.041C25.9584 23.041 25.9809 23.0465 26.0011 23.0569C27.4062 23.7001 29.0193 23.9069 30.4443 24.0712C32.1671 24.3237 33.914 24.3722 35.6484 24.2157C35.6677 24.2138 35.6872 24.2157 35.7058 24.2214C35.7243 24.2271 35.7416 24.2364 35.7564 24.2488C35.7713 24.2612 35.7836 24.2765 35.7924 24.2937C35.8012 24.3109 35.8065 24.3296 35.808 24.3489L36.0246 29.2704C36.0262 29.3058 36.0141 29.3406 35.9908 29.3675C35.9675 29.3943 35.9347 29.4113 35.8992 29.4149C35.6683 29.4406 35.4361 29.4519 35.2038 29.4489ZM25.9527 24.3489C26.5227 25.2981 27.4603 26.1764 28.7742 26.9612C30.3075 27.8764 33.2316 29.3582 35.7339 29.1316L35.5287 24.4962C33.818 24.6356 32.097 24.5814 30.3987 24.3347C29.0164 24.1647 27.4546 23.9749 26.0524 23.3771L25.9527 24.3489Z" fill="#231F20"/>
<path d="M38.1189 9.42792C38.5692 9.47326 38.4495 10.7284 38.4523 11.3886V14.7376C38.4523 16.0494 38.4979 17.3698 38.4523 18.6788C38.4357 19.1477 38.3717 19.6137 38.2614 20.0699C37.8833 21.6182 36.9798 22.9895 35.7032 23.9526C34.4265 24.9157 32.8549 25.4117 31.2532 25.3569L30.441 25.3258C28.5971 25.26 26.8548 24.4694 25.5968 23.1274C24.3389 21.7855 23.6682 20.002 23.7321 18.1688C23.7577 17.4066 23.7321 16.6359 23.7321 15.8709C23.7321 14.8991 23.2162 12.5276 24.3705 12.0884C24.7524 11.9836 25.1458 11.9256 25.5418 11.9156C26.1056 11.8504 26.6502 11.6724 27.1429 11.3924C27.6357 11.1124 28.0663 10.7362 28.4089 10.2864L28.2237 11.3546C30.2058 11.5319 32.2025 11.2597 34.0633 10.5584C34.9753 10.2128 35.9187 9.70842 36.292 8.80176L36.2578 10.7851C36.7309 10.7171 37.0587 10.3006 37.3779 9.93509C37.6971 9.56959 37.9564 9.41092 38.1189 9.42792Z" fill="white"/>
<path d="M31.5008 25.502H31.2557L30.4435 25.4708C29.5109 25.4397 28.5936 25.2261 27.7442 24.8422C26.8947 24.4582 26.1298 23.9115 25.4931 23.2333C24.8565 22.5551 24.3606 21.7588 24.0339 20.8898C23.7072 20.0209 23.5561 19.0964 23.5892 18.1693C23.6063 17.6622 23.5892 17.1437 23.5892 16.6422C23.5892 16.3843 23.5892 16.1293 23.5892 15.8743C23.5892 15.6788 23.5664 15.4238 23.5408 15.1292C23.441 13.9533 23.3042 12.3468 24.3217 11.9615C24.6108 11.8666 24.9122 11.8141 25.2166 11.8057L25.5244 11.7773C26.0678 11.7122 26.5925 11.5391 27.0674 11.2685C27.5423 10.9979 27.9577 10.6352 28.2889 10.202C28.3082 10.1772 28.3352 10.1594 28.3657 10.1516C28.3962 10.1437 28.4285 10.1461 28.4575 10.1584C28.4866 10.1707 28.5106 10.1922 28.526 10.2196C28.5414 10.247 28.5472 10.2786 28.5425 10.3097L28.3858 11.2277C30.2982 11.3725 32.2192 11.0958 34.0117 10.4173C35.183 9.97532 35.867 9.44266 36.1606 8.73999C36.1722 8.70892 36.1948 8.68314 36.2242 8.66749C36.2536 8.65183 36.2877 8.64739 36.3202 8.65499C36.3528 8.66161 36.3821 8.67942 36.403 8.7053C36.4238 8.73119 36.4348 8.76352 36.4342 8.79666L36.4028 10.5845C36.7133 10.4311 36.9822 10.2056 37.1866 9.92716L37.2692 9.83366C37.6283 9.43132 37.8962 9.26699 38.1242 9.26699C38.6315 9.32082 38.6116 10.219 38.5916 11.0123C38.5916 11.1427 38.5916 11.2645 38.5916 11.3693V14.7183C38.5916 15.1547 38.5916 15.591 38.5916 16.0302C38.5916 16.8943 38.6144 17.7868 38.5916 18.6652C38.5309 20.4962 37.7555 22.2317 36.4298 23.5042C35.1041 24.7767 33.3322 25.4861 31.4894 25.4822L31.5008 25.502ZM28.1806 10.7687C27.4795 11.484 26.5532 11.939 25.5557 12.0578L25.2394 12.0862C24.9615 12.091 24.6858 12.1369 24.4214 12.2222C23.6063 12.531 23.7346 14.0185 23.8258 15.1008C23.8514 15.404 23.8742 15.6675 23.8742 15.8715C23.8742 16.1265 23.8742 16.3787 23.8742 16.6365C23.8742 17.1408 23.8742 17.6622 23.8742 18.175C23.8426 19.0648 23.9877 19.952 24.3013 20.786C24.6148 21.6199 25.0907 22.3843 25.7016 23.0353C26.3125 23.6863 27.0465 24.2113 27.8616 24.5801C28.6767 24.9489 29.557 25.1543 30.452 25.1847L31.2671 25.2158C32.1624 25.2484 33.0553 25.1049 33.8947 24.7936C34.7341 24.4823 35.5034 24.0093 36.1585 23.4017C36.8135 22.7942 37.3415 22.064 37.7121 21.2532C38.0827 20.4423 38.2886 19.5667 38.318 18.6765C38.3465 17.8038 38.3351 16.9142 38.318 16.0528C38.318 15.6137 38.318 15.1773 38.318 14.7382V11.3892C38.318 11.2815 38.318 11.1568 38.318 11.0265C38.318 10.5618 38.3522 9.59566 38.1071 9.57016C38.0501 9.57016 37.8763 9.59566 37.4887 10.0292L37.4089 10.134C37.1096 10.474 36.7733 10.8593 36.2888 10.9273C36.2682 10.931 36.2471 10.9301 36.2269 10.9247C36.2067 10.9193 36.188 10.9096 36.172 10.8962C36.1565 10.8822 36.1442 10.8651 36.1359 10.8461C36.1275 10.827 36.1233 10.8064 36.1235 10.7857L36.1492 9.36899C35.7502 9.90732 35.0918 10.3408 34.1228 10.7063C32.2414 11.413 30.2238 11.688 28.2205 11.511C28.2009 11.5093 28.1819 11.5036 28.1646 11.4943C28.1474 11.4849 28.1322 11.4721 28.1202 11.4567C28.1082 11.4413 28.0995 11.4235 28.0946 11.4046C28.0898 11.3856 28.089 11.3659 28.0922 11.3467L28.1806 10.7687Z" fill="#231F20"/>
<path d="M31.1742 13.8652C31.1742 13.8652 33.4542 18.8831 32.4481 18.9652C31.4421 19.0474 30 18.3136 30 18.3136" fill="white"/>
<path d="M32.281 19.1234C31.2635 19.1234 30.001 18.4689 29.944 18.4405C29.9272 18.4319 29.9124 18.42 29.9003 18.4056C29.8882 18.3912 29.8791 18.3746 29.8735 18.3566C29.868 18.3387 29.866 18.3199 29.8678 18.3012C29.8697 18.2825 29.8752 18.2644 29.8841 18.2479C29.9017 18.215 29.9316 18.1903 29.9673 18.1792C30.0031 18.1681 30.0418 18.1714 30.0751 18.1884C30.0893 18.1884 31.5001 18.9165 32.4434 18.8315C32.4601 18.8311 32.4764 18.8262 32.4905 18.8172C32.5046 18.8082 32.5159 18.7955 32.5232 18.7805C32.8282 18.2592 31.7822 15.525 31.0526 13.9242C31.0398 13.8905 31.0404 13.8532 31.0543 13.8198C31.0681 13.7865 31.0943 13.7597 31.1274 13.7449C31.1604 13.7301 31.1979 13.7284 31.2322 13.7401C31.2665 13.7519 31.2951 13.7761 31.312 13.808C31.5115 14.2444 33.2471 18.1062 32.7683 18.908C32.7388 18.9626 32.6958 19.0088 32.6435 19.0425C32.5912 19.0762 32.5312 19.0962 32.4691 19.1007C32.4007 19.1205 32.3351 19.1234 32.281 19.1234Z" fill="#231F20"/>
<path d="M28.5257 16.2825C28.7901 16.2825 29.0045 15.8727 29.0045 15.3673C29.0045 14.8619 28.7901 14.4521 28.5257 14.4521C28.2612 14.4521 28.0469 14.8619 28.0469 15.3673C28.0469 15.8727 28.2612 16.2825 28.5257 16.2825Z" fill="#231F20"/>
<path d="M34.5569 16.2825C34.8214 16.2825 35.0357 15.8727 35.0357 15.3673C35.0357 14.8619 34.8214 14.4521 34.5569 14.4521C34.2925 14.4521 34.0781 14.8619 34.0781 15.3673C34.0781 15.8727 34.2925 16.2825 34.5569 16.2825Z" fill="#231F20"/>
<path d="M37.0821 27.6182C36.9111 27.6182 31.2852 32.3215 31.2852 32.3215L34.7622 36.3533L38.4672 29.3068L37.0821 27.6182Z" fill="white"/>
<path d="M34.7605 36.4833C34.7399 36.4826 34.7197 36.4777 34.701 36.469C34.6824 36.4602 34.6658 36.4477 34.6522 36.4323L31.1752 32.4033C31.1506 32.3741 31.1383 32.3365 31.141 32.2985C31.1427 32.2799 31.1481 32.2618 31.1569 32.2452C31.1658 32.2287 31.1778 32.2141 31.1923 32.2022C36.8552 27.4648 37.0148 27.4648 37.0804 27.4648C37.1015 27.465 37.1223 27.4696 37.1415 27.4784C37.1607 27.4872 37.1777 27.5 37.1915 27.5158L38.588 29.2158C38.6056 29.2376 38.6162 29.2639 38.6188 29.2916C38.6213 29.3193 38.6156 29.3472 38.6023 29.3717L34.8973 36.4182C34.886 36.4384 34.8701 36.4556 34.8507 36.4685C34.8314 36.4813 34.8092 36.4893 34.7861 36.4918L34.7605 36.4833ZM31.4858 32.3268L34.732 36.0895L38.3059 29.3122L37.049 27.7907C36.4819 28.1902 33.5236 30.6353 31.4858 32.3382V32.3268Z" fill="#231F20"/>
<path d="M24.5662 27.5781C24.7514 27.5781 31.3406 32.3211 31.3406 32.3211L27.3221 36.353L23.3008 28.6576L24.5662 27.5781Z" fill="white"/>
<path d="M27.3228 36.484H27.3C27.2778 36.4809 27.2567 36.4725 27.2384 36.4597C27.2201 36.4469 27.2051 36.43 27.1945 36.4104L23.176 28.7151C23.1613 28.6866 23.1566 28.6541 23.1628 28.6227C23.169 28.5913 23.1858 28.563 23.2102 28.5422L24.4728 27.4627C24.499 27.4405 24.5324 27.4284 24.5668 27.4287C24.6238 27.4287 24.7977 27.4287 31.4239 32.2001C31.4411 32.2113 31.4555 32.2264 31.4659 32.2441C31.4762 32.2618 31.4824 32.2816 31.4838 32.3021C31.4855 32.3222 31.4828 32.3425 31.4759 32.3616C31.469 32.3807 31.4581 32.398 31.4439 32.4126L27.4368 36.4529C27.421 36.4657 27.4028 36.4751 27.3831 36.4805C27.3635 36.4859 27.3429 36.4871 27.3228 36.484ZM23.481 28.6924L27.357 36.1157L31.1218 32.3389C28.6879 30.5879 25.1368 28.0719 24.5896 27.7461L23.481 28.6924Z" fill="#231F20"/>
<path d="M31.2759 23.3205H31.0707C28.3547 23.1306 27.7818 20.0508 27.7761 20.0196C27.7721 19.9998 27.7726 19.9794 27.7775 19.9598C27.7825 19.9402 27.7917 19.9219 27.8046 19.9063C27.818 19.8906 27.8346 19.878 27.8533 19.8692C27.8719 19.8604 27.8923 19.8557 27.9129 19.8553L35.1548 19.6116C35.1787 19.61 35.2025 19.6147 35.224 19.6251C35.2455 19.6356 35.2639 19.6514 35.2773 19.6711C35.2886 19.6916 35.2944 19.7145 35.2944 19.7377C35.2944 19.761 35.2886 19.7839 35.2773 19.8043C35.2346 19.946 33.8523 23.3205 31.2759 23.3205ZM28.0925 20.1245C28.2492 20.7365 28.9475 22.8841 31.0907 23.0315C33.2339 23.1788 34.5876 20.6401 34.9382 19.8978L28.0925 20.1245Z" fill="#231F20"/>
<path d="M22.3698 10.374H23.7293V19.4407H22.3727C21.6833 19.4407 21.0222 19.1684 20.5347 18.6839C20.0473 18.1993 19.7735 17.542 19.7735 16.8567V12.9665C19.7723 12.6267 19.8386 12.29 19.9686 11.9757C20.0985 11.6614 20.2895 11.3757 20.5307 11.1349C20.7719 10.8941 21.0584 10.7029 21.374 10.5723C21.6896 10.4418 22.028 10.3744 22.3698 10.374Z" fill="white"/>
<path d="M23.7301 19.5826H22.3706C21.6434 19.5811 20.9465 19.2931 20.4326 18.7816C19.9187 18.2702 19.6297 17.577 19.6289 16.8541V12.9668C19.6297 12.2439 19.9187 11.5507 20.4326 11.0393C20.9465 10.5278 21.6434 10.2398 22.3706 10.2383H23.7301C23.7676 10.239 23.8034 10.2542 23.83 10.2806C23.8566 10.307 23.8718 10.3426 23.8726 10.3799V19.4466C23.8704 19.483 23.8545 19.5172 23.8281 19.5424C23.8017 19.5676 23.7667 19.582 23.7301 19.5826ZM22.3706 10.5159C21.718 10.5174 21.0927 10.7764 20.6321 11.236C20.1715 11.6955 19.9131 12.318 19.9139 12.9668V16.8541C19.9147 17.5019 20.1736 18.123 20.6341 18.5813C21.0946 19.0396 21.719 19.2978 22.3706 19.2993H23.5876V10.5159H22.3706Z" fill="#231F20"/>
<path d="M39.8383 19.2031H38.4817V10.1365H39.8383C40.1796 10.1365 40.5176 10.2033 40.833 10.3332C41.1483 10.463 41.4349 10.6533 41.6762 10.8933C41.9176 11.1332 42.109 11.4181 42.2396 11.7316C42.3703 12.0451 42.4375 12.3811 42.4375 12.7205V16.6163C42.4379 16.9559 42.3709 17.2922 42.2405 17.606C42.11 17.9198 41.9186 18.205 41.6772 18.4453C41.4358 18.6855 41.1492 18.8761 40.8336 19.0062C40.5181 19.1362 40.1799 19.2031 39.8383 19.2031Z" fill="white"/>
<path d="M39.835 19.3422H38.4784C38.4406 19.3422 38.4044 19.3273 38.3777 19.3007C38.351 19.2741 38.3359 19.2381 38.3359 19.2005V10.1339C38.3359 10.0963 38.351 10.0602 38.3777 10.0337C38.4044 10.0071 38.4406 9.99219 38.4784 9.99219H39.835C40.5624 9.99219 41.2601 10.2793 41.7747 10.7903C42.2893 11.3014 42.5788 11.9947 42.5796 12.7179V16.6165C42.5781 17.3394 42.2883 18.0323 41.7739 18.5432C41.2594 19.0541 40.5622 19.3414 39.835 19.3422ZM38.6209 19.0589H39.835C40.4866 19.0581 41.1114 18.8006 41.5724 18.3429C42.0334 17.8851 42.2931 17.2643 42.2946 16.6165V12.7207C42.2931 12.0729 42.0334 11.4521 41.5724 10.9944C41.1114 10.5366 40.4866 10.2791 39.835 10.2784H38.6209V19.0589Z" fill="#231F20"/>
<path d="M39.9155 12.6412C39.8399 12.6412 39.7675 12.6114 39.714 12.5583C39.6606 12.5051 39.6305 12.4331 39.6305 12.3579C39.6305 7.62625 36.6523 3.77858 32.9957 3.77858H29.2907C25.6342 3.77858 22.6559 7.62625 22.6559 12.3579C22.6559 12.4331 22.6259 12.5051 22.5725 12.5583C22.519 12.6114 22.4465 12.6412 22.3709 12.6412C22.2954 12.6412 22.2229 12.6114 22.1694 12.5583C22.116 12.5051 22.0859 12.4331 22.0859 12.3579C22.0859 7.31458 25.3178 3.21191 29.2907 3.21191H32.9957C36.9686 3.21191 40.2005 7.31458 40.2005 12.3579C40.2005 12.4331 40.1705 12.5051 40.1171 12.5583C40.0636 12.6114 39.9911 12.6412 39.9155 12.6412Z" fill="#231F20"/>
<path d="M25.3815 22.1926C24.0107 22.1926 22.902 22.1217 22.7111 21.9092C22.218 21.3426 22.0641 18.7529 22.047 18.4582C22.0454 18.4208 22.0585 18.3843 22.0835 18.3563C22.1085 18.3283 22.1434 18.311 22.181 18.3081C22.2 18.3065 22.2191 18.3089 22.2372 18.315C22.2553 18.3211 22.272 18.3308 22.2861 18.3435C22.3003 18.3563 22.3117 18.3718 22.3195 18.3891C22.3274 18.4064 22.3317 18.4251 22.332 18.4441C22.3748 19.2176 22.5629 21.3171 22.9248 21.7222C23.2326 22.0056 27.4107 21.9319 31.2753 21.6741C31.3127 21.6732 31.3491 21.6864 31.3772 21.7111C31.4052 21.7358 31.4228 21.7702 31.4263 21.8072C31.4275 21.8259 31.425 21.8445 31.4188 21.8621C31.4127 21.8798 31.4032 21.896 31.3907 21.91C31.3783 21.9239 31.3632 21.9353 31.3463 21.9434C31.3294 21.9516 31.3111 21.9563 31.2924 21.9574C30.463 22.0112 27.5846 22.1926 25.3815 22.1926Z" fill="#231F20"/>
<path d="M30.8868 21.2969H27.8117C27.4669 21.2969 27.1875 21.5747 27.1875 21.9174C27.1875 22.2601 27.4669 22.5379 27.8117 22.5379H30.8868C31.2315 22.5379 31.5109 22.2601 31.5109 21.9174C31.5109 21.5747 31.2315 21.2969 30.8868 21.2969Z" fill="#231F20"/>
<path d="M30.8848 22.6796H27.8096C27.6063 22.6796 27.4113 22.5993 27.2675 22.4564C27.1237 22.3134 27.043 22.1196 27.043 21.9174C27.043 21.7153 27.1237 21.5214 27.2675 21.3785C27.4113 21.2356 27.6063 21.1553 27.8096 21.1553H30.8848C31.0881 21.1553 31.2831 21.2356 31.4269 21.3785C31.5706 21.5214 31.6514 21.7153 31.6514 21.9174C31.6514 22.1196 31.5706 22.3134 31.4269 22.4564C31.2831 22.5993 31.0881 22.6796 30.8848 22.6796ZM27.8096 21.4386C27.6819 21.4386 27.5594 21.4891 27.469 21.5789C27.3787 21.6687 27.328 21.7904 27.328 21.9174C27.328 22.0444 27.3787 22.1662 27.469 22.256C27.5594 22.3458 27.6819 22.3963 27.8096 22.3963H30.8848C31.0125 22.3963 31.135 22.3458 31.2253 22.256C31.3157 22.1662 31.3664 22.0444 31.3664 21.9174C31.3664 21.7904 31.3157 21.6687 31.2253 21.5789C31.135 21.4891 31.0125 21.4386 30.8848 21.4386H27.8096Z" fill="#231F20"/>
<path d="M29.4294 16.5655H26.3429C25.8528 16.5648 25.3831 16.3707 25.0368 16.0259C24.6906 15.6812 24.4961 15.2139 24.4961 14.7267V13.1202C24.4961 13.0826 24.5111 13.0466 24.5378 13.02C24.5646 12.9934 24.6008 12.9785 24.6386 12.9785H31.1394C31.1772 12.9785 31.2135 12.9934 31.2402 13.02C31.2669 13.0466 31.2819 13.0826 31.2819 13.1202V14.7267C31.2812 15.2146 31.0857 15.6823 30.7383 16.0271C30.391 16.3719 29.9203 16.5655 29.4294 16.5655ZM24.7811 13.2505V14.7153C24.7811 15.1274 24.9455 15.5226 25.2384 15.8143C25.5312 16.1059 25.9284 16.2701 26.3429 16.2709H29.4294C29.8442 16.2701 30.2417 16.106 30.535 15.8144C30.8282 15.5229 30.9933 15.1277 30.9941 14.7153V13.2505H24.7811Z" fill="#231F20"/>
<path d="M37.0062 16.5655H33.9082C33.4179 16.5648 32.9479 16.3708 32.6012 16.0261C32.2545 15.6814 32.0593 15.2141 32.0586 14.7267V13.1202C32.0586 13.0826 32.0736 13.0466 32.1003 13.02C32.1271 12.9934 32.1633 12.9785 32.2011 12.9785H38.7105C38.7483 12.9785 38.7845 12.9934 38.8113 13.02C38.838 13.0466 38.853 13.0826 38.853 13.1202V14.7267C38.853 15.2139 38.6585 15.6812 38.3123 16.0259C37.966 16.3707 37.4963 16.5648 37.0062 16.5655ZM32.3436 13.2505V14.7153C32.3443 15.1277 32.5094 15.5229 32.8027 15.8144C33.096 16.106 33.4935 16.2701 33.9082 16.2709H37.0062C37.4207 16.2701 37.8179 16.1059 38.1107 15.8143C38.4035 15.5226 38.568 15.1274 38.568 14.7153V13.2505H32.3436Z" fill="#231F20"/>
<path d="M32.2009 14.0063C32.1735 14.0072 32.1465 13.9992 32.124 13.9837C32.0333 13.905 31.9273 13.8458 31.8125 13.8097C31.6978 13.7736 31.5768 13.7615 31.4571 13.774C31.424 13.7848 31.3937 13.8025 31.3681 13.826C31.3425 13.8494 31.3223 13.8781 31.3089 13.91C31.2966 13.9452 31.2708 13.9741 31.2372 13.9905C31.2036 14.007 31.1649 14.0096 31.1294 13.9978C31.1117 13.9924 31.0953 13.9835 31.0811 13.9716C31.067 13.9598 31.0553 13.9453 31.0468 13.929C31.0383 13.9126 31.0332 13.8948 31.0317 13.8764C31.0302 13.8581 31.0324 13.8397 31.0382 13.8222C31.0644 13.7494 31.1067 13.6834 31.1619 13.629C31.2172 13.5746 31.2839 13.5331 31.3574 13.5077C31.6024 13.4227 31.9273 13.5077 32.2807 13.7485C32.3055 13.7657 32.3241 13.7902 32.3339 13.8186C32.3438 13.8469 32.3443 13.8777 32.3354 13.9064C32.3265 13.935 32.3087 13.9602 32.2846 13.9781C32.2604 13.9961 32.2311 14.006 32.2009 14.0063Z" fill="#231F20"/>
<path d="M24.6376 14.007H23.7284C23.6906 14.007 23.6544 13.992 23.6277 13.9655C23.601 13.9389 23.5859 13.9029 23.5859 13.8653C23.5859 13.8277 23.601 13.7917 23.6277 13.7651C23.6544 13.7386 23.6906 13.7236 23.7284 13.7236H24.6376C24.6752 13.7244 24.711 13.7395 24.7375 13.7659C24.7641 13.7923 24.7794 13.828 24.7801 13.8653C24.7801 13.9029 24.7651 13.9389 24.7383 13.9655C24.7116 13.992 24.6754 14.007 24.6376 14.007Z" fill="#231F20"/>
<path d="M48.4604 66.9334H11.855L8.55469 43.1504H51.7635L48.4604 66.9334Z" fill="#231F20"/>
<path d="M48.459 67.0836H11.8536C11.8193 67.0839 11.7862 67.0716 11.7604 67.0491C11.7347 67.0267 11.7181 66.9956 11.7139 66.9618L8.41076 43.1703C8.40719 43.1304 8.41947 43.0908 8.44497 43.0598C8.45856 43.0444 8.47519 43.0319 8.49381 43.0232C8.51244 43.0144 8.53267 43.0095 8.55326 43.0088H51.7621C51.7824 43.0092 51.8023 43.0139 51.8205 43.0228C51.8387 43.0316 51.8548 43.0442 51.8676 43.0598C51.8814 43.0744 51.8917 43.0919 51.8977 43.1111C51.9036 43.1302 51.905 43.1505 51.9018 43.1703L48.6015 66.9533C48.5986 66.9889 48.5823 67.022 48.5559 67.0462C48.5295 67.0704 48.4949 67.0837 48.459 67.0836ZM11.979 66.8003H48.3364L51.5968 43.2836H8.71571L11.979 66.8003Z" fill="#231F20"/>
<path d="M48.7931 66.9336H11.4439C10.9528 66.9336 10.5547 67.3294 10.5547 67.8176V67.8204C10.5547 68.3086 10.9528 68.7044 11.4439 68.7044H48.7931C49.2842 68.7044 49.6823 68.3086 49.6823 67.8204V67.8176C49.6823 67.3294 49.2842 66.9336 48.7931 66.9336Z" fill="#231F20"/>
<path d="M48.8105 68.8456H11.4756C11.3353 68.8529 11.195 68.8318 11.0633 68.7835C10.9315 68.7352 10.8111 68.6607 10.7092 68.5646C10.6073 68.4685 10.5262 68.3528 10.4707 68.2246C10.4153 68.0963 10.3867 67.9581 10.3867 67.8185C10.3867 67.6789 10.4153 67.5408 10.4707 67.4125C10.5262 67.2842 10.6073 67.1685 10.7092 67.0724C10.8111 66.9764 10.9315 66.9019 11.0633 66.8536C11.195 66.8053 11.3353 66.7841 11.4756 66.7915H48.8105C49.0752 66.8053 49.3244 66.9195 49.5067 67.1106C49.6891 67.3017 49.7908 67.5551 49.7908 67.8185C49.7908 68.082 49.6891 68.3354 49.5067 68.5265C49.3244 68.7176 49.0752 68.8318 48.8105 68.8456ZM11.447 67.0833C11.3449 67.077 11.2426 67.0916 11.1463 67.1261C11.0501 67.1607 10.962 67.2145 10.8874 67.2841C10.8129 67.3538 10.7535 67.4379 10.7129 67.5313C10.6723 67.6247 10.6513 67.7253 10.6513 67.827C10.6513 67.9288 10.6723 68.0294 10.7129 68.1228C10.7535 68.2161 10.8129 68.3003 10.8874 68.3699C10.962 68.4396 11.0501 68.4934 11.1463 68.5279C11.2426 68.5625 11.3449 68.5771 11.447 68.5708H48.8105C49.001 68.5591 49.1798 68.4757 49.3104 68.3375C49.4411 68.1993 49.5139 68.0167 49.5139 67.827C49.5139 67.6374 49.4411 67.4548 49.3104 67.3166C49.1798 67.1784 49.001 67.095 48.8105 67.0833H11.447Z" fill="#231F20"/>
<path d="M47.1263 67.0841H11.4472C11.4094 67.0841 11.3732 67.0692 11.3464 67.0426C11.3197 67.0161 11.3047 66.98 11.3047 66.9424C11.3047 66.9049 11.3197 66.8688 11.3464 66.8423C11.3732 66.8157 11.4094 66.8008 11.4472 66.8008H47.1263C47.1641 66.8008 47.2004 66.8157 47.2271 66.8423C47.2538 66.8688 47.2688 66.9049 47.2688 66.9424C47.2688 66.98 47.2538 67.0161 47.2271 67.0426C47.2004 67.0692 47.1641 67.0841 47.1263 67.0841Z" fill="white"/>
<path d="M21.2309 15.5167H20.1308C20.093 15.5167 20.0567 15.5018 20.03 15.4752C20.0033 15.4487 19.9883 15.4126 19.9883 15.3751C19.9883 15.3375 20.0033 15.3015 20.03 15.2749C20.0567 15.2483 20.093 15.2334 20.1308 15.2334H21.2309C21.2687 15.2334 21.3049 15.2483 21.3316 15.2749C21.3584 15.3015 21.3734 15.3375 21.3734 15.3751C21.3734 15.4126 21.3584 15.4487 21.3316 15.4752C21.3049 15.5018 21.2687 15.5167 21.2309 15.5167Z" fill="#D1D3D4"/>
<path d="M21.2309 16.5656H20.1308C20.093 16.5656 20.0567 16.5506 20.03 16.5241C20.0033 16.4975 19.9883 16.4615 19.9883 16.4239C19.9883 16.3863 20.0033 16.3503 20.03 16.3237C20.0567 16.2972 20.093 16.2822 20.1308 16.2822H21.2309C21.2687 16.2822 21.3049 16.2972 21.3316 16.3237C21.3584 16.3503 21.3734 16.3863 21.3734 16.4239C21.3734 16.4615 21.3584 16.4975 21.3316 16.5241C21.3049 16.5506 21.2687 16.5656 21.2309 16.5656Z" fill="#D1D3D4"/>
<path d="M30.001 54.6568C29.9343 54.5673 29.8434 54.4985 29.7388 54.4585C29.639 54.419 29.5327 54.3979 29.4253 54.3961C29.302 54.3955 29.1799 54.4196 29.0662 54.467C28.9611 54.5135 28.8666 54.5807 28.7882 54.6644C28.7099 54.7482 28.6493 54.8468 28.6102 54.9543C28.5673 55.0714 28.546 55.1952 28.5475 55.3198C28.5459 55.4479 28.5661 55.5753 28.6074 55.6966C28.6465 55.8013 28.7055 55.8975 28.7812 55.98C28.8572 56.0613 28.9494 56.1259 29.052 56.1698C29.1638 56.2165 29.2841 56.2397 29.4054 56.2378C29.5309 56.2399 29.6551 56.2117 29.7673 56.1556C29.8677 56.1073 29.9548 56.0353 30.021 55.946L30.3829 56.1981C30.2735 56.337 30.133 56.4486 29.9725 56.524C29.7935 56.6043 29.5988 56.644 29.4025 56.6401C29.2155 56.6414 29.0299 56.6078 28.8553 56.541C28.6945 56.4772 28.5489 56.3807 28.4278 56.2576C28.3053 56.1384 28.2083 55.9958 28.1428 55.8383C28.0751 55.6669 28.0412 55.4841 28.0431 55.3C28.0409 55.1125 28.0767 54.9265 28.1485 54.7531C28.214 54.5965 28.311 54.4547 28.4335 54.3366C28.5599 54.221 28.7081 54.1314 28.8696 54.0731C29.0443 54.0117 29.2285 53.981 29.4139 53.9825C29.499 53.982 29.5839 53.9895 29.6676 54.0051C29.7544 54.0197 29.8394 54.0435 29.9212 54.076C30.0023 54.1071 30.0797 54.147 30.1521 54.195C30.2214 54.2418 30.283 54.2992 30.3345 54.365L30.001 54.6568Z" fill="white"/>
<path d="M31.9539 54.5918C31.8996 54.5256 31.8302 54.4732 31.7516 54.4388C31.6702 54.3982 31.5804 54.3768 31.4894 54.3764C31.4355 54.3761 31.3819 54.3827 31.3298 54.3963C31.279 54.4072 31.2307 54.4274 31.1873 54.4558C31.1446 54.4835 31.1086 54.5203 31.0818 54.5634C31.0531 54.6113 31.0392 54.6665 31.0419 54.7221C31.0402 54.7724 31.052 54.8223 31.0761 54.8666C31.1024 54.9075 31.1363 54.9431 31.1759 54.9714C31.223 55.0021 31.2737 55.0269 31.3269 55.0451L31.5236 55.1103C31.6062 55.1358 31.6889 55.1641 31.7772 55.1981C31.8622 55.2314 31.9427 55.2752 32.0166 55.3284C32.0903 55.3842 32.1515 55.4546 32.1962 55.5353C32.2447 55.6319 32.2682 55.739 32.2646 55.8469C32.268 55.9691 32.2426 56.0904 32.1905 56.2011C32.1427 56.2975 32.0747 56.3825 31.991 56.4504C31.9062 56.5177 31.8096 56.5687 31.706 56.6006C31.5904 56.635 31.4704 56.6522 31.3497 56.6516C31.1849 56.6512 31.0216 56.6204 30.8681 56.5609C30.7162 56.5017 30.5826 56.4041 30.4805 56.2776L30.8025 55.9773C30.8674 56.0642 30.9525 56.1341 31.0505 56.1813C31.1464 56.228 31.2515 56.2532 31.3583 56.2549C31.4121 56.2552 31.4657 56.2485 31.5179 56.2351C31.5708 56.2238 31.6208 56.2018 31.6649 56.1707C31.709 56.1395 31.7462 56.0997 31.7744 56.0538C31.8048 56.0013 31.8196 55.9414 31.8171 55.881C31.8184 55.8225 31.8015 55.7651 31.7687 55.7166C31.7362 55.6698 31.6933 55.631 31.6433 55.6033C31.5857 55.5666 31.5234 55.538 31.458 55.5183L31.2329 55.4446C31.155 55.4182 31.078 55.3898 31.002 55.3596C30.9269 55.3264 30.8577 55.2814 30.7968 55.2264C30.7344 55.1699 30.684 55.1015 30.6486 55.0253C30.6082 54.9314 30.5887 54.8299 30.5916 54.7278C30.5882 54.6122 30.6157 54.4978 30.6714 54.3963C30.7254 54.3064 30.7971 54.2283 30.8823 54.1668C30.9698 54.1073 31.0659 54.0615 31.1673 54.0308C31.2781 54.0025 31.3921 53.9883 31.5065 53.9883C31.6404 53.9893 31.7733 54.0122 31.8998 54.0563C32.0278 54.0983 32.1453 54.1669 32.2446 54.2574L31.9539 54.5918Z" fill="white"/>
<path d="M30.1563 58.5612C29.513 58.5595 28.8845 58.3683 28.3504 58.0117C27.8163 57.6552 27.4005 57.1492 27.1555 56.5579C26.9104 55.9665 26.8472 55.3162 26.9737 54.6891C27.1003 54.062 27.4109 53.4862 27.8665 53.0346C28.322 52.5829 28.9019 52.2756 29.533 52.1514C30.1642 52.0272 30.8181 52.0918 31.4123 52.337C32.0066 52.5821 32.5144 52.9968 32.8716 53.5287C33.2289 54.0607 33.4196 54.6859 33.4196 55.3255C33.4192 55.751 33.3345 56.1723 33.1702 56.5653C33.006 56.9582 32.7655 57.3151 32.4624 57.6156C32.1594 57.9161 31.7997 58.1543 31.404 58.3165C31.0083 58.4788 30.5843 58.5619 30.1563 58.5612ZM30.1563 52.3732C29.5693 52.3748 28.996 52.5494 28.5088 52.8749C28.0215 53.2003 27.6422 53.662 27.4188 54.2016C27.1953 54.7412 27.1377 55.3345 27.2533 55.9067C27.3688 56.4788 27.6523 57.0041 28.068 57.4161C28.4836 57.8281 29.0128 58.1085 29.5886 58.2217C30.1645 58.3349 30.7611 58.276 31.3033 58.0523C31.8454 57.8286 32.3087 57.4502 32.6347 56.9648C32.9606 56.4795 33.1346 55.9091 33.1346 55.3255C33.133 54.5415 32.8185 53.7901 32.2601 53.2365C31.7016 52.683 30.9449 52.3724 30.1563 52.3732Z" fill="white"/>
</svg>
